<svg version="1.1" id="Layer_1" xmlns="http://www.w3.org/2000/svg" xmlns:xlink="http://www.w3.org/1999/xlink" x="0px" y="0px"
	 width="100%" viewBox="0 0 560 300" enable-background="new 0 0 560 300" xml:space="preserve">
<path fill="#FEFEFE" opacity="1.000000" stroke="none" 
	d="
M383.000000,301.000000 
	C255.333374,301.000000 128.166748,301.000000 1.000085,301.000000 
	C1.000057,201.000061 1.000057,101.000137 1.000028,1.000152 
	C187.666550,1.000102 374.333099,1.000102 560.999756,1.000051 
	C560.999817,100.999847 560.999817,200.999695 560.999878,300.999756 
	C501.833344,301.000000 442.666656,301.000000 383.000000,301.000000 
M434.000000,190.000000 
	C434.000000,190.000000 433.974457,189.976746 434.775208,189.993454 
	C435.413086,188.820312 436.050964,187.647156 436.776917,185.979050 
	C437.082397,185.594772 437.387878,185.210495 438.449921,184.846756 
	C440.273071,181.292908 443.438324,177.819031 443.655731,174.169540 
	C444.203430,164.976593 445.556702,155.396423 439.848389,146.957642 
	C436.748657,142.375244 435.422729,135.922104 428.000366,136.001053 
	C428.000366,136.001053 428.017578,135.972702 427.978210,135.267975 
	C426.365448,133.913025 424.910767,132.283295 423.113281,131.249527 
	C414.156830,126.098396 404.395172,127.492249 394.968323,128.843063 
	C391.419983,129.351532 388.299225,132.844254 384.998779,135.001221 
	C384.998779,135.001221 384.976166,134.981064 384.242004,134.936966 
	C379.544312,136.824188 375.319305,139.141602 374.996216,145.006989 
	C374.996216,145.006989 375.049652,145.032684 374.322876,145.055161 
	C373.188538,146.353531 371.667542,147.475677 370.982452,148.978821 
	C366.436554,158.952789 367.385345,169.347977 369.247925,179.682831 
	C369.670929,182.030090 370.252655,185.209335 374.000000,185.000000 
	C374.000000,185.000000 374.032715,184.969940 373.954926,185.691574 
	C374.936127,186.800110 375.917328,187.908646 377.185364,189.204956 
	C377.185364,189.204956 377.277527,189.535172 377.117462,190.331802 
	C378.046021,194.716354 380.007538,197.798218 384.992126,196.975891 
	C384.992126,196.975891 385.222626,196.754654 385.170471,197.477249 
	C386.197113,198.494034 387.079620,199.739517 388.273102,200.491531 
	C397.982635,206.609634 421.443787,204.628815 429.706329,196.927292 
	C430.384644,196.295029 430.142120,194.674881 430.463226,193.436356 
	C430.463226,193.436356 430.584930,193.338226 431.288574,193.664566 
	C432.184143,192.435089 433.079681,191.205627 434.000000,190.000000 
M118.051773,151.306808 
	C115.749222,136.893021 113.446663,122.479240 111.137810,108.025986 
	C102.469810,108.025986 94.333107,108.025986 85.768745,108.025986 
	C79.949394,144.469101 74.145706,180.814163 68.318588,217.305878 
	C74.058197,217.305878 78.966194,217.305878 84.085159,217.305878 
	C85.162247,210.685654 86.193192,204.348999 87.220482,198.034821 
	C94.442474,198.034821 101.205109,198.034821 108.171623,198.034821 
	C109.217575,204.606857 110.227936,210.955292 111.221794,217.199997 
	C117.230179,217.199997 122.756836,217.199997 128.634308,217.199997 
	C125.085258,195.203964 121.613823,173.688934 118.051773,151.306808 
M515.500000,107.880112 
	C492.982147,107.880112 470.464325,107.880112 446.574249,107.880112 
	C463.139130,120.327621 472.400299,135.769669 475.916687,154.533188 
	C498.162445,154.533188 520.045044,154.533188 541.789429,154.533188 
	C541.789429,138.803436 541.789429,123.415451 541.789429,107.880112 
	C533.115723,107.880112 524.807861,107.880112 515.500000,107.880112 
M159.357834,178.498810 
	C159.543945,184.984116 159.271759,191.522232 160.011856,197.943680 
	C161.538345,211.188141 170.542587,218.669983 183.788834,218.377594 
	C185.452820,218.340851 187.119476,218.411301 188.782806,218.361755 
	C198.863312,218.061539 206.769928,212.808792 208.963745,202.970505 
	C210.837631,194.566986 210.803909,185.738113 211.632492,176.899780 
	C205.186676,176.899780 200.089783,176.899780 194.388824,176.899780 
	C194.388824,182.770187 194.673904,188.403931 194.313904,193.996155 
	C193.899612,200.431641 190.904022,203.098694 185.273209,202.901459 
	C179.767944,202.708618 176.920609,199.702042 176.891159,193.309464 
	C176.796844,172.828140 176.805557,152.345657 176.917740,131.864410 
	C176.951569,125.689262 180.082932,122.393021 185.380157,122.255447 
	C190.802872,122.114616 193.910767,125.105743 194.309082,131.398636 
	C194.588593,135.814545 194.363068,140.262436 194.363068,144.639771 
	C200.331009,144.639771 205.428101,144.639771 211.323044,144.639771 
	C210.856461,137.905212 210.878128,131.415390 209.849564,125.096519 
	C208.568848,117.228508 204.024384,111.514778 196.391846,108.456497 
	C177.810715,101.011230 161.056427,111.253136 159.571838,131.046997 
	C159.422546,133.037369 159.358429,135.038559 159.356247,137.034836 
	C159.341507,150.522934 159.354095,164.011078 159.357834,178.498810 
M343.744232,201.931641 
	C337.315643,201.931641 330.887054,201.931641 324.396118,201.931641 
	C324.396118,190.853622 324.396118,180.463425 324.396118,169.685593 
	C327.984222,169.685593 331.255432,169.685593 334.710602,169.685593 
	C335.009399,164.400208 335.286865,159.491913 335.599701,153.958374 
	C331.773285,153.958374 328.060638,153.958374 324.321472,153.958374 
	C324.321472,143.582001 324.321472,133.824539 324.321472,123.594620 
	C331.495453,123.594620 338.447327,123.643860 345.397369,123.553436 
	C346.802887,123.535149 348.648895,123.454048 349.528870,122.608170 
	C354.346191,117.977463 358.925659,113.099266 363.817902,108.068512 
	C344.772827,108.068512 326.055969,108.068512 307.216553,108.068512 
	C307.216553,144.607803 307.216553,180.925659 307.216553,217.356262 
	C323.617523,217.356262 339.667664,217.356262 356.043060,217.356262 
	C352.052460,212.035080 348.314362,207.050583 343.744232,201.931641 
M470.497009,194.919861 
	C465.526031,202.741867 460.555023,210.563873 455.760010,218.108978 
	C478.322449,218.108978 501.379547,218.108978 524.662292,218.108978 
	C524.662292,201.958923 524.662292,186.074753 524.662292,169.948547 
	C508.633514,169.948547 492.789612,169.948547 477.756989,169.948547 
	C475.361389,178.375000 473.105927,186.308517 470.497009,194.919861 
M281.263397,208.452057 
	C281.263397,180.328934 281.263397,152.205811 281.263397,123.527542 
	C287.487000,123.527542 293.228577,123.527542 299.020447,123.527542 
	C299.020447,118.057014 299.020447,113.148788 299.020447,108.083206 
	C281.333923,108.083206 263.910522,108.083206 246.254974,108.083206 
	C246.254974,113.213264 246.254974,118.128914 246.254974,123.591560 
	C252.158615,123.591560 257.898529,123.591560 263.995117,123.591560 
	C263.995117,155.076324 263.995117,186.018188 263.995117,217.252838 
	C269.901062,217.252838 275.430328,217.252838 281.264404,217.252838 
	C281.264404,214.403091 281.264404,211.919220 281.263397,208.452057 
M19.842222,137.499924 
	C19.842222,164.081055 19.842222,190.662201 19.842222,217.644363 
	C33.825928,217.644363 47.131863,217.696701 60.435513,217.546524 
	C61.517662,217.534317 63.321804,216.301071 63.531391,215.356003 
	C64.483330,211.063431 64.983902,206.670792 65.735413,201.732285 
	C55.838631,201.732285 46.597740,201.732285 36.836140,201.732285 
	C36.836140,170.168411 36.836140,139.111450 36.836140,108.208260 
	C30.884321,108.208260 25.477503,108.208260 19.842220,108.208260 
	C19.842220,117.866280 19.842220,127.183090 19.842222,137.499924 
M238.660873,189.500153 
	C238.660873,162.428436 238.660873,135.356705 238.660873,108.210312 
	C232.568268,108.210312 227.032349,108.210312 221.431274,108.210312 
	C221.431274,144.741653 221.431274,180.916290 221.431274,217.273834 
	C227.253647,217.273834 232.794418,217.273834 238.660843,217.273834 
	C238.660843,208.088486 238.660843,199.294327 238.660873,189.500153 
M336.248627,102.126854 
	C338.111603,101.750809 340.768585,102.024612 341.700195,100.886330 
	C345.747620,95.941055 349.292145,90.584198 353.567291,84.611542 
	C347.691284,84.611542 342.758240,84.572617 337.827209,84.655128 
	C337.119507,84.666969 336.156952,85.073235 335.760376,85.621201 
	C332.003723,90.811981 328.344086,96.072975 324.083893,102.127602 
	C328.493958,102.127602 331.909088,102.127602 336.248627,102.126854 
z"/>
<path fill="#07A161" opacity="1.000000" stroke="none" 
	d="
M377.277527,189.535172 
	C377.277527,189.535172 377.185364,189.204956 377.003174,188.792267 
	C375.891541,187.243027 374.962128,186.106491 374.032715,184.969940 
	C374.032715,184.969940 374.000000,185.000000 373.998535,184.615036 
	C366.816132,170.962021 367.842285,157.914352 375.049652,145.032684 
	C375.049652,145.032684 374.996216,145.006989 375.320007,144.883041 
	C378.754608,141.499756 381.865387,138.240417 384.976166,134.981064 
	C384.976166,134.981064 384.998779,135.001221 385.345978,134.955841 
	C388.546906,133.594757 391.318237,132.045502 394.268799,131.004181 
	C406.354736,126.738853 417.440063,129.740662 428.017578,135.972702 
	C428.017578,135.972702 428.000366,136.001053 428.122284,136.306885 
	C435.827728,142.922638 440.685577,150.758011 442.099091,160.667145 
	C443.323364,169.249786 441.186218,177.143112 437.693359,184.826233 
	C437.387878,185.210495 437.082397,185.594772 436.435059,186.368469 
	C435.386963,187.830856 434.680695,188.903793 433.974457,189.976746 
	C433.974457,189.976746 434.000000,190.000000 433.695862,190.091339 
	C432.456146,191.234543 431.520538,192.286377 430.584930,193.338226 
	C430.584930,193.338226 430.463226,193.436356 430.086273,193.569153 
	C425.077179,196.169662 420.680573,199.365463 415.764557,200.955490 
	C405.096741,204.405869 394.897461,201.874710 385.222626,196.754654 
	C385.222626,196.754654 384.992126,196.975891 384.987122,196.566895 
	C382.413910,193.950317 379.845703,191.742737 377.277527,189.535172 
z"/>
<path fill="#070707" opacity="1.000000" stroke="none" 
	d="
M118.097076,151.740356 
	C121.613823,173.688934 125.085258,195.203964 128.634308,217.199997 
	C122.756836,217.199997 117.230179,217.199997 111.221794,217.199997 
	C110.227936,210.955292 109.217575,204.606857 108.171623,198.034821 
	C101.205109,198.034821 94.442474,198.034821 87.220482,198.034821 
	C86.193192,204.348999 85.162247,210.685654 84.085159,217.305878 
	C78.966194,217.305878 74.058197,217.305878 68.318588,217.305878 
	C74.145706,180.814163 79.949394,144.469101 85.768745,108.025986 
	C94.333107,108.025986 102.469810,108.025986 111.137810,108.025986 
	C113.446663,122.479240 115.749222,136.893021 118.097076,151.740356 
M103.065414,164.321075 
	C101.424286,153.292252 99.783150,142.263443 98.142014,131.234619 
	C97.764503,131.258987 97.386993,131.283371 97.009483,131.307739 
	C94.474190,148.331375 91.938896,165.355026 89.403984,182.376083 
	C95.199623,182.376083 100.382652,182.376083 105.848473,182.376083 
	C104.906227,176.331741 104.038048,170.762543 103.065414,164.321075 
z"/>
<path fill="#030303" opacity="1.000000" stroke="none" 
	d="
M516.000000,107.880112 
	C524.807861,107.880112 533.115723,107.880112 541.789429,107.880112 
	C541.789429,123.415451 541.789429,138.803436 541.789429,154.533188 
	C520.045044,154.533188 498.162445,154.533188 475.916687,154.533188 
	C472.400299,135.769669 463.139130,120.327621 446.574249,107.880112 
	C470.464325,107.880112 492.982147,107.880112 516.000000,107.880112 
z"/>
<path fill="#080808" opacity="1.000000" stroke="none" 
	d="
M159.357849,177.999008 
	C159.354095,164.011078 159.341507,150.522934 159.356247,137.034836 
	C159.358429,135.038559 159.422546,133.037369 159.571838,131.046997 
	C161.056427,111.253136 177.810715,101.011230 196.391846,108.456497 
	C204.024384,111.514778 208.568848,117.228508 209.849564,125.096519 
	C210.878128,131.415390 210.856461,137.905212 211.323044,144.639771 
	C205.428101,144.639771 200.331009,144.639771 194.363068,144.639771 
	C194.363068,140.262436 194.588593,135.814545 194.309082,131.398636 
	C193.910767,125.105743 190.802872,122.114616 185.380157,122.255447 
	C180.082932,122.393021 176.951569,125.689262 176.917740,131.864410 
	C176.805557,152.345657 176.796844,172.828140 176.891159,193.309464 
	C176.920609,199.702042 179.767944,202.708618 185.273209,202.901459 
	C190.904022,203.098694 193.899612,200.431641 194.313904,193.996155 
	C194.673904,188.403931 194.388824,182.770187 194.388824,176.899780 
	C200.089783,176.899780 205.186676,176.899780 211.632492,176.899780 
	C210.803909,185.738113 210.837631,194.566986 208.963745,202.970505 
	C206.769928,212.808792 198.863312,218.061539 188.782806,218.361755 
	C187.119476,218.411301 185.452820,218.340851 183.788834,218.377594 
	C170.542587,218.669983 161.538345,211.188141 160.011856,197.943680 
	C159.271759,191.522232 159.543945,184.984116 159.357849,177.999008 
z"/>
<path fill="#060606" opacity="1.000000" stroke="none" 
	d="
M344.160217,201.998871 
	C348.314362,207.050583 352.052460,212.035080 356.043060,217.356262 
	C339.667664,217.356262 323.617523,217.356262 307.216553,217.356262 
	C307.216553,180.925659 307.216553,144.607803 307.216553,108.068512 
	C326.055969,108.068512 344.772827,108.068512 363.817902,108.068512 
	C358.925659,113.099266 354.346191,117.977463 349.528870,122.608170 
	C348.648895,123.454048 346.802887,123.535149 345.397369,123.553436 
	C338.447327,123.643860 331.495453,123.594620 324.321472,123.594620 
	C324.321472,133.824539 324.321472,143.582001 324.321472,153.958374 
	C328.060638,153.958374 331.773285,153.958374 335.599701,153.958374 
	C335.286865,159.491913 335.009399,164.400208 334.710602,169.685593 
	C331.255432,169.685593 327.984222,169.685593 324.396118,169.685593 
	C324.396118,180.463425 324.396118,190.853622 324.396118,201.931641 
	C330.887054,201.931641 337.315643,201.931641 344.160217,201.998871 
z"/>
<path fill="#030303" opacity="1.000000" stroke="none" 
	d="
M470.673706,194.580933 
	C473.105927,186.308517 475.361389,178.375000 477.756989,169.948547 
	C492.789612,169.948547 508.633514,169.948547 524.662292,169.948547 
	C524.662292,186.074753 524.662292,201.958923 524.662292,218.108978 
	C501.379547,218.108978 478.322449,218.108978 455.760010,218.108978 
	C460.555023,210.563873 465.526031,202.741867 470.673706,194.580933 
z"/>
<path fill="#060606" opacity="1.000000" stroke="none" 
	d="
M281.263916,208.943710 
	C281.264404,211.919220 281.264404,214.403091 281.264404,217.252838 
	C275.430328,217.252838 269.901062,217.252838 263.995117,217.252838 
	C263.995117,186.018188 263.995117,155.076324 263.995117,123.591560 
	C257.898529,123.591560 252.158615,123.591560 246.254974,123.591560 
	C246.254974,118.128914 246.254974,113.213264 246.254974,108.083206 
	C263.910522,108.083206 281.333923,108.083206 299.020447,108.083206 
	C299.020447,113.148788 299.020447,118.057014 299.020447,123.527542 
	C293.228577,123.527542 287.487000,123.527542 281.263397,123.527542 
	C281.263397,152.205811 281.263397,180.328934 281.263916,208.943710 
z"/>
<path fill="#050505" opacity="1.000000" stroke="none" 
	d="
M19.842220,136.999908 
	C19.842220,127.183090 19.842220,117.866280 19.842220,108.208260 
	C25.477503,108.208260 30.884321,108.208260 36.836140,108.208260 
	C36.836140,139.111450 36.836140,170.168411 36.836140,201.732285 
	C46.597740,201.732285 55.838631,201.732285 65.735413,201.732285 
	C64.983902,206.670792 64.483330,211.063431 63.531391,215.356003 
	C63.321804,216.301071 61.517662,217.534317 60.435513,217.546524 
	C47.131863,217.696701 33.825928,217.644363 19.842222,217.644363 
	C19.842222,190.662201 19.842222,164.081055 19.842220,136.999908 
z"/>
<path fill="#0C0C0C" opacity="1.000000" stroke="none" 
	d="
M238.660858,190.000153 
	C238.660843,199.294327 238.660843,208.088486 238.660843,217.273834 
	C232.794418,217.273834 227.253647,217.273834 221.431274,217.273834 
	C221.431274,180.916290 221.431274,144.741653 221.431274,108.210312 
	C227.032349,108.210312 232.568268,108.210312 238.660873,108.210312 
	C238.660873,135.356705 238.660873,162.428436 238.660858,190.000153 
z"/>
<path fill="#0A0A0A" opacity="1.000000" stroke="none" 
	d="
M335.786438,102.127228 
	C331.909088,102.127602 328.493958,102.127602 324.083893,102.127602 
	C328.344086,96.072975 332.003723,90.811981 335.760376,85.621201 
	C336.156952,85.073235 337.119507,84.666969 337.827209,84.655128 
	C342.758240,84.572617 347.691284,84.611542 353.567291,84.611542 
	C349.292145,90.584198 345.747620,95.941055 341.700195,100.886330 
	C340.768585,102.024612 338.111603,101.750809 335.786438,102.127228 
z"/>
<path fill="#CAF7E7" opacity="1.000000" stroke="none" 
	d="
M438.071655,184.836487 
	C441.186218,177.143112 443.323364,169.249786 442.099091,160.667145 
	C440.685577,150.758011 435.827728,142.922638 428.135559,136.296494 
	C435.422729,135.922104 436.748657,142.375244 439.848389,146.957642 
	C445.556702,155.396423 444.203430,164.976593 443.655731,174.169540 
	C443.438324,177.819031 440.273071,181.292908 438.071655,184.836487 
z"/>
<path fill="#CAF7E7" opacity="1.000000" stroke="none" 
	d="
M385.196533,197.115952 
	C394.897461,201.874710 405.096741,204.405869 415.764557,200.955490 
	C420.680573,199.365463 425.077179,196.169662 430.018402,193.607849 
	C430.142120,194.674881 430.384644,196.295029 429.706329,196.927292 
	C421.443787,204.628815 397.982635,206.609634 388.273102,200.491531 
	C387.079620,199.739517 386.197113,198.494034 385.196533,197.115952 
z"/>
<path fill="#CAF7E7" opacity="1.000000" stroke="none" 
	d="
M374.686279,145.043915 
	C367.842285,157.914352 366.816132,170.962021 374.014832,184.600220 
	C370.252655,185.209335 369.670929,182.030090 369.247925,179.682831 
	C367.385345,169.347977 366.436554,158.952789 370.982452,148.978821 
	C371.667542,147.475677 373.188538,146.353531 374.686279,145.043915 
z"/>
<path fill="#CAF7E7" opacity="1.000000" stroke="none" 
	d="
M427.997894,135.620331 
	C417.440063,129.740662 406.354736,126.738853 394.268799,131.004181 
	C391.318237,132.045502 388.546906,133.594757 385.338379,134.943481 
	C388.299225,132.844254 391.419983,129.351532 394.968323,128.843063 
	C404.395172,127.492249 414.156830,126.098396 423.113281,131.249527 
	C424.910767,132.283295 426.365448,133.913025 427.997894,135.620331 
z"/>
<path fill="#CAF7E7" opacity="1.000000" stroke="none" 
	d="
M384.609070,134.959015 
	C381.865387,138.240417 378.754608,141.499756 375.341400,144.904083 
	C375.319305,139.141602 379.544312,136.824188 384.609070,134.959015 
z"/>
<path fill="#CAF7E7" opacity="1.000000" stroke="none" 
	d="
M377.197510,189.933487 
	C379.845703,191.742737 382.413910,193.950317 385.106812,196.461731 
	C380.007538,197.798218 378.046021,194.716354 377.197510,189.933487 
z"/>
<path fill="#CAF7E7" opacity="1.000000" stroke="none" 
	d="
M434.374817,189.985107 
	C434.680695,188.903793 435.386963,187.830856 436.391022,186.615967 
	C436.050964,187.647156 435.413086,188.820312 434.374817,189.985107 
z"/>
<path fill="#CAF7E7" opacity="1.000000" stroke="none" 
	d="
M430.936768,193.501404 
	C431.520538,192.286377 432.456146,191.234543 433.683472,190.079437 
	C433.079681,191.205627 432.184143,192.435089 430.936768,193.501404 
z"/>
<path fill="#CAF7E7" opacity="1.000000" stroke="none" 
	d="
M373.993835,185.330765 
	C374.962128,186.106491 375.891541,187.243027 376.859741,188.698364 
	C375.917328,187.908646 374.936127,186.800110 373.993835,185.330765 
z"/>
<path fill="#F1F1F1" opacity="1.000000" stroke="none" 
	d="
M103.117645,164.757202 
	C104.038048,170.762543 104.906227,176.331741 105.848473,182.376083 
	C100.382652,182.376083 95.199623,182.376083 89.403984,182.376083 
	C91.938896,165.355026 94.474190,148.331375 97.009483,131.307739 
	C97.386993,131.283371 97.764503,131.258987 98.142014,131.234619 
	C99.783150,142.263443 101.424286,153.292252 103.117645,164.757202 
z"/>
</svg>