<svg version="1.1" id="Layer_1" xmlns="http://www.w3.org/2000/svg" xmlns:xlink="http://www.w3.org/1999/xlink" x="0px" y="0px"
	 width="100%" viewBox="0 0 180 166" enable-background="new 0 0 180 166" xml:space="preserve">
<path fill="#FCFCFC" opacity="1.000000" stroke="none" 
	d="
M136.000000,167.000000 
	C91.028618,167.000000 46.057240,167.000000 1.042929,167.000000 
	C1.042929,111.730507 1.042929,56.460968 1.042929,1.095715 
	C60.897896,1.095715 120.795990,1.095715 180.847046,1.095715 
	C180.847046,56.333027 180.847046,111.666458 180.847046,167.000000 
	C167.586975,167.000000 154.262146,167.000000 140.429291,166.599213 
	C139.441681,163.605225 138.962128,161.012024 138.482574,158.418839 
	C138.199524,158.417465 137.916473,158.416107 137.633423,158.414734 
	C137.222916,160.142578 136.812408,161.870407 136.426224,163.495834 
	C133.655396,163.805283 130.422043,159.996399 128.781219,165.016602 
	C128.796249,165.106277 128.946899,165.110641 129.495361,165.106567 
	C131.928772,165.732101 133.964386,166.366043 136.000000,167.000000 
M41.760315,53.484276 
	C42.671928,81.299583 64.434608,102.918953 91.228371,102.626595 
	C118.560722,102.328362 141.018692,79.619362 140.617554,52.685383 
	C140.212189,25.467571 118.164047,3.451015 91.156097,3.294773 
	C64.230713,3.139008 42.453335,24.839975 41.760315,53.484276 
M45.798264,139.614532 
	C45.038521,137.089127 47.626278,132.896027 41.901306,131.591888 
	C41.901306,136.841263 41.901306,141.061813 41.901306,145.372391 
	C35.679199,141.944504 35.298855,131.927826 27.201757,132.110443 
	C27.201757,138.700409 27.069973,144.574524 27.315630,150.432816 
	C27.363380,151.571548 28.880938,152.648651 29.720528,153.754181 
	C30.252172,153.456406 30.783815,153.158646 31.315460,152.860886 
	C31.315460,148.545273 31.315460,144.229675 31.315460,138.973465 
	C34.033657,142.470520 35.860867,145.298157 38.170891,147.651947 
	C40.257515,149.778107 40.837795,154.593506 45.798256,152.776398 
	C45.798256,148.540970 45.798256,144.555603 45.798264,139.614532 
M118.602745,153.231995 
	C119.011780,152.665161 119.896210,151.808456 119.755112,151.577072 
	C118.557701,149.613388 117.173538,147.763550 115.521828,145.420609 
	C119.902603,143.617477 121.320175,140.181702 119.750534,136.184753 
	C118.157646,132.128616 114.226456,131.973434 110.449837,132.045883 
	C107.680763,132.099014 104.909859,132.056305 102.744812,132.056305 
	C102.744812,139.457748 102.744812,146.279419 102.744812,153.144196 
	C109.807732,153.568130 105.210785,147.995255 108.522102,145.420380 
	C109.891663,146.398819 111.728836,147.557648 113.382133,148.936890 
	C114.952927,150.247330 116.331406,151.788300 118.602745,153.231995 
M22.357801,134.222733 
	C21.379789,133.413773 20.401779,132.604797 18.486856,131.020859 
	C18.486856,136.704926 18.552917,140.519333 18.466318,144.330276 
	C18.394808,147.477203 17.240229,149.943710 13.618017,150.054260 
	C9.858949,150.168961 8.209558,147.911667 8.109113,144.439804 
	C7.994575,140.480881 8.082614,136.516083 8.082614,132.084641 
	C6.146261,132.223541 4.672411,132.329269 3.509633,132.412689 
	C3.772410,137.282471 3.830525,141.540039 4.273774,145.757111 
	C4.810462,150.863159 8.374011,153.846603 13.373859,153.771927 
	C18.498156,153.695419 21.812551,150.736465 22.191732,145.555862 
	C22.446009,142.081787 22.319849,138.579849 22.357801,134.222733 
M90.455902,132.061646 
	C87.666161,132.061646 84.876419,132.061646 82.709351,132.061646 
	C82.709351,139.399734 82.709351,146.229904 82.709351,153.228378 
	C87.827248,153.228378 92.137360,153.313828 96.438286,153.153229 
	C97.256920,153.122665 98.039223,152.119171 98.838287,151.564575 
	C98.041580,150.995346 97.272514,149.987305 96.443245,149.935059 
	C93.340401,149.739578 90.217865,149.856857 86.799377,149.856857 
	C86.924919,147.720688 87.017998,146.137024 87.130325,144.225754 
	C90.092308,144.225754 92.735695,144.334732 95.358185,144.148819 
	C96.010406,144.102570 96.595039,143.103043 97.210739,142.541672 
	C96.571960,142.003799 95.960205,141.044754 95.289673,141.001709 
	C92.540527,140.825317 89.773460,140.928040 86.795555,140.928040 
	C86.915314,138.819824 86.996857,137.384247 87.096352,135.632675 
	C90.351044,135.632675 93.319511,135.760635 96.264168,135.552200 
	C97.111908,135.492188 97.891022,134.462769 98.701591,133.877808 
	C97.930305,133.273209 97.224274,132.292343 96.373711,132.144821 
	C94.759872,131.864914 93.063232,132.062439 90.455902,132.061646 
M159.836990,151.571274 
	C158.697937,150.997543 157.593536,150.033188 156.412888,149.928452 
	C153.648270,149.683243 150.847092,149.850067 147.730881,149.850067 
	C147.840118,147.741165 147.922012,146.160141 148.022049,144.229111 
	C150.999054,144.229111 153.642044,144.337021 156.264603,144.153320 
	C156.920807,144.107346 157.511292,143.123199 158.131989,142.570236 
	C157.505310,142.022003 156.906464,141.043213 156.247101,141.000580 
	C153.492325,140.822479 150.719360,140.925537 147.726501,140.925537 
	C147.830170,138.843460 147.901489,137.411118 147.989899,135.635559 
	C151.253571,135.635559 154.222595,135.763474 157.167908,135.555481 
	C158.021393,135.495239 158.806854,134.472000 159.623489,133.890213 
	C158.862473,133.280548 158.118713,132.170135 157.337601,132.143219 
	C152.577011,131.979065 147.807938,132.061234 143.712601,132.061234 
	C143.712601,139.462158 143.712601,146.289078 143.712601,153.620377 
	C149.643600,153.203293 154.712021,152.846863 159.836990,151.571274 
M137.651703,137.317902 
	C137.536835,135.974335 137.604691,133.513809 137.278748,133.460495 
	C134.119553,132.943695 130.754364,132.199005 127.746231,132.865509 
	C126.213051,133.205200 124.461090,136.234863 124.341309,138.144775 
	C124.240509,139.752197 126.152237,141.706741 127.570023,143.105179 
	C128.412643,143.936310 130.172165,143.755646 131.253510,144.446274 
	C132.864868,145.475449 134.241302,146.872437 135.717712,148.112915 
	C133.514160,148.611938 131.327179,149.233521 129.096924,149.535004 
	C128.431519,149.624954 127.618912,148.454727 126.919746,148.504761 
	C125.767334,148.587219 124.652374,149.193085 123.521622,149.578323 
	C123.618416,150.382294 123.715210,151.186264 123.812012,151.990234 
	C127.569717,152.372208 131.409241,153.362396 135.049744,152.872787 
	C136.800659,152.637314 139.246414,149.705658 139.416351,147.818344 
	C139.581879,145.980331 137.555038,143.577164 135.902542,142.064926 
	C134.682266,140.948242 132.343964,141.148361 130.829758,140.226425 
	C129.704391,139.541245 129.101578,137.997757 128.266022,136.836563 
	C129.893463,136.402618 131.562469,135.522339 133.135849,135.668869 
	C134.518661,135.797653 135.794403,137.076248 137.651703,137.317902 
M71.843414,141.234818 
	C71.055191,143.153503 70.266968,145.072189 69.118553,147.867630 
	C67.279099,143.284958 65.516167,139.574265 64.312012,135.690323 
	C63.232525,132.208496 61.411896,131.204697 58.243919,132.474167 
	C61.192764,139.202133 63.852646,145.979965 67.160492,152.425262 
	C68.286903,154.620056 70.565613,153.859192 71.570305,151.423309 
	C74.154228,145.158569 76.716301,138.884811 79.287102,132.614655 
	C78.948463,132.256790 78.609833,131.898941 78.271194,131.541092 
	C76.985123,132.513748 75.322662,133.244293 74.503761,134.517441 
	C73.359116,136.297012 72.843788,138.481369 71.843414,141.234818 
M178.805038,150.626389 
	C175.280487,150.222656 171.755936,149.818924 167.855942,149.372177 
	C167.855942,143.746643 167.855942,138.149353 167.855942,132.088791 
	C165.972672,132.186874 164.503174,132.263397 163.760757,132.302063 
	C163.760757,139.669037 163.760757,146.345886 163.760757,153.229630 
	C168.364243,153.229630 172.178009,153.342514 175.976685,153.152817 
	C176.966141,153.103424 177.908478,152.110489 178.805038,150.626389 
M104.651505,124.835579 
	C103.512375,124.635422 102.373253,124.435265 101.234123,124.235115 
	C101.241768,123.900261 101.249413,123.565414 101.257057,123.230568 
	C103.258537,122.671822 105.260017,122.113075 107.261497,121.554329 
	C107.183662,121.137466 107.105827,120.720612 107.028000,120.303749 
	C105.975746,120.163094 104.907387,120.093620 103.876099,119.860306 
	C102.978226,119.657173 102.122200,119.269051 101.247681,118.962669 
	C101.314476,118.679070 101.381271,118.395470 101.448067,118.111870 
	C103.653778,117.729927 105.859482,117.347984 108.065193,116.966042 
	C108.037048,116.598335 108.008904,116.230637 107.980766,115.862938 
	C106.050201,115.115814 104.119644,114.368698 102.686073,113.813911 
	C101.554047,114.372025 100.065773,115.105766 98.706268,115.776024 
	C98.706268,119.614540 98.706268,123.353775 98.706268,126.890778 
	C102.011787,126.890778 104.979622,126.890778 107.947464,126.890778 
	C108.011650,126.502693 108.075836,126.114609 108.140015,125.726524 
	C107.258438,125.429855 106.376854,125.133194 104.651505,124.835579 
M115.602303,117.512634 
	C117.244385,117.512634 118.886475,117.512634 120.528557,117.512634 
	C117.334099,114.122551 113.741386,113.736374 111.453644,117.063522 
	C110.166946,118.934814 109.961098,122.555878 110.876724,124.702644 
	C112.305756,128.053101 116.120056,128.601654 118.990814,126.816811 
	C120.596130,125.818741 120.985504,122.864944 122.330063,119.891823 
	C119.081223,120.159492 117.471962,120.292084 115.862701,120.424675 
	C115.831276,120.806244 115.799843,121.187805 115.768410,121.569374 
	C116.741570,122.271606 117.714729,122.973839 118.687889,123.676079 
	C118.469856,124.151405 118.251823,124.626732 118.033791,125.102058 
	C116.452049,124.517677 113.723183,124.177414 113.535683,123.296326 
	C113.183205,121.639999 114.298271,119.671371 115.602303,117.512634 
M61.569790,121.420631 
	C62.763950,123.262794 63.556271,125.724968 65.237961,126.814919 
	C68.495132,128.925995 72.793610,127.040886 74.207436,123.483131 
	C75.558334,120.083725 73.757835,116.222290 70.299065,115.101051 
	C66.235252,113.783691 63.202145,115.734116 61.569790,121.420631 
M131.716064,124.870468 
	C130.070114,124.769257 128.424164,124.668045 126.778206,124.566833 
	C126.749695,124.120331 126.721191,123.673836 126.692680,123.227333 
	C128.620956,122.640030 130.549240,122.052734 132.477524,121.465431 
	C132.402725,121.085678 132.327927,120.705925 132.253143,120.326172 
	C130.420441,120.008896 128.587738,119.691612 126.755043,119.374336 
	C126.771317,118.994980 126.787582,118.615623 126.803856,118.236275 
	C128.959335,117.707642 131.114822,117.179016 133.270294,116.650391 
	C133.179291,116.229805 133.088287,115.809219 132.997284,115.388634 
	C130.051117,115.388634 127.104950,115.388634 124.184723,115.388634 
	C124.184723,119.413910 124.184723,123.266243 124.184723,127.361328 
	C126.819847,127.361328 129.131989,127.488304 131.406067,127.250763 
	C131.844101,127.205009 132.132858,125.730209 131.716064,124.870468 
M55.028191,137.656219 
	C55.028191,135.875275 55.028191,134.094345 55.028191,132.017548 
	C53.074135,132.136658 51.660175,132.222839 51.105221,132.256668 
	C51.105221,138.511093 51.190483,144.374069 51.071568,150.232910 
	C51.005753,153.475388 52.299698,153.907227 55.028191,152.478119 
	C55.028191,147.881119 55.028191,143.249603 55.028191,137.656219 
M52.407330,122.860260 
	C50.476707,115.193237 57.514046,119.158646 60.229126,117.392502 
	C56.759232,114.197456 53.111099,114.119049 50.621506,116.887039 
	C48.184666,119.596382 48.541050,123.939163 51.386513,126.209206 
	C54.348068,128.571869 57.586353,128.016357 59.844521,124.778358 
	C57.527382,124.358383 55.199356,123.936424 52.407330,122.860260 
M90.612450,122.391434 
	C90.604340,115.941818 90.604340,115.941818 87.966576,115.340050 
	C87.966576,119.258926 87.966576,123.144249 87.966576,127.570053 
	C91.025536,127.333916 93.814293,127.118637 96.603043,126.903358 
	C96.524811,126.510056 96.446571,126.116753 96.368340,125.723450 
	C94.459099,124.911118 92.549866,124.098785 90.612450,122.391434 
M76.942947,125.986984 
	C79.865738,126.521568 82.788528,127.056152 85.711319,127.590729 
	C85.809914,126.864273 85.908501,126.137810 86.007095,125.411346 
	C84.096390,125.112602 82.185684,124.813858 80.287781,124.517113 
	C78.507507,121.649406 81.713326,117.267250 76.937073,114.128716 
	C76.937073,118.527618 76.937073,121.810875 76.942947,125.986984 
M49.372368,165.033066 
	C50.314178,164.963013 51.255989,164.892944 52.617516,164.791672 
	C51.390598,162.368118 50.336323,160.285583 49.237839,158.115723 
	C47.288258,160.618439 45.555107,162.843323 43.505535,165.474396 
	C44.886959,165.365234 46.755066,165.217621 49.372368,165.033066 
M132.067581,159.478745 
	C132.651169,160.111816 133.234756,160.744873 133.818344,161.377945 
	C134.110367,160.854309 134.402390,160.330673 134.694412,159.807022 
	C133.868332,159.484177 133.042252,159.161316 132.067581,159.478745 
z"/>
<path fill="#DEDFDF" opacity="1.000000" stroke="none" 
	d="
M136.399994,167.000000 
	C133.964386,166.366043 131.928772,165.732101 129.452240,165.058624 
	C129.011322,165.019104 128.916855,164.931305 128.916855,164.931305 
	C130.422043,159.996399 133.655396,163.805283 136.426224,163.495834 
	C136.812408,161.870407 137.222916,160.142578 137.633423,158.414734 
	C137.916473,158.416107 138.199524,158.417465 138.482574,158.418839 
	C138.962128,161.012024 139.441681,163.605225 139.960632,166.599213 
	C138.933334,167.000000 137.866653,167.000000 136.399994,167.000000 
z"/>
<path fill="#83C851" opacity="1.000000" stroke="none" 
	d="
M41.760101,53.000969 
	C42.453335,24.839975 64.230713,3.139008 91.156097,3.294773 
	C118.164047,3.451015 140.212189,25.467571 140.617554,52.685383 
	C141.018692,79.619362 118.560722,102.328362 91.228371,102.626595 
	C64.434608,102.918953 42.671928,81.299583 41.760101,53.000969 
M70.503639,94.127953 
	C79.944603,98.688377 89.797279,100.358879 100.113380,98.023994 
	C118.734764,93.809349 130.993286,82.337578 135.545319,63.994385 
	C140.214432,45.179447 134.537537,28.839054 119.218803,16.830570 
	C104.242386,5.090435 87.437782,3.464031 70.434052,12.005411 
	C54.794571,19.861486 46.063725,33.195892 45.267406,50.677364 
	C44.392288,69.888557 53.265163,84.202957 70.503639,94.127953 
z"/>
<path fill="#171717" opacity="1.000000" stroke="none" 
	d="
M45.798260,140.092377 
	C45.798256,144.555603 45.798256,148.540970 45.798256,152.776398 
	C40.837795,154.593506 40.257515,149.778107 38.170891,147.651947 
	C35.860867,145.298157 34.033657,142.470520 31.315460,138.973465 
	C31.315460,144.229675 31.315460,148.545273 31.315460,152.860886 
	C30.783815,153.158646 30.252172,153.456406 29.720528,153.754181 
	C28.880938,152.648651 27.363380,151.571548 27.315630,150.432816 
	C27.069973,144.574524 27.201757,138.700409 27.201757,132.110443 
	C35.298855,131.927826 35.679199,141.944504 41.901306,145.372391 
	C41.901306,141.061813 41.901306,136.841263 41.901306,131.591888 
	C47.626278,132.896027 45.038521,137.089127 45.798260,140.092377 
z"/>
<path fill="#141414" opacity="1.000000" stroke="none" 
	d="
M118.198593,153.229950 
	C116.331406,151.788300 114.952927,150.247330 113.382133,148.936890 
	C111.728836,147.557648 109.891663,146.398819 108.522102,145.420380 
	C105.210785,147.995255 109.807732,153.568130 102.744812,153.144196 
	C102.744812,146.279419 102.744812,139.457748 102.744812,132.056305 
	C104.909859,132.056305 107.680763,132.099014 110.449837,132.045883 
	C114.226456,131.973434 118.157646,132.128616 119.750534,136.184753 
	C121.320175,140.181702 119.902603,143.617477 115.521828,145.420609 
	C117.173538,147.763550 118.557701,149.613388 119.755112,151.577072 
	C119.896210,151.808456 119.011780,152.665161 118.198593,153.229950 
M106.870483,139.249786 
	C106.236420,143.030426 108.928070,143.094620 111.141182,142.465820 
	C113.028214,141.929626 114.602051,140.291153 116.314430,139.140289 
	C115.311119,138.033707 114.141640,135.890549 113.336411,136.019623 
	C111.135597,136.372421 107.292068,133.087799 106.870483,139.249786 
z"/>
<path fill="#141414" opacity="1.000000" stroke="none" 
	d="
M22.360859,134.656555 
	C22.319849,138.579849 22.446009,142.081787 22.191732,145.555862 
	C21.812551,150.736465 18.498156,153.695419 13.373859,153.771927 
	C8.374011,153.846603 4.810462,150.863159 4.273774,145.757111 
	C3.830525,141.540039 3.772410,137.282471 3.509633,132.412689 
	C4.672411,132.329269 6.146261,132.223541 8.082614,132.084641 
	C8.082614,136.516083 7.994575,140.480881 8.109113,144.439804 
	C8.209558,147.911667 9.858949,150.168961 13.618017,150.054260 
	C17.240229,149.943710 18.394808,147.477203 18.466318,144.330276 
	C18.552917,140.519333 18.486856,136.704926 18.486856,131.020859 
	C20.401779,132.604797 21.379789,133.413773 22.360859,134.656555 
z"/>
<path fill="#121212" opacity="1.000000" stroke="none" 
	d="
M90.928444,132.061646 
	C93.063232,132.062439 94.759872,131.864914 96.373711,132.144821 
	C97.224274,132.292343 97.930305,133.273209 98.701599,133.877808 
	C97.891022,134.462769 97.111908,135.492188 96.264168,135.552200 
	C93.319511,135.760635 90.351044,135.632675 87.096352,135.632675 
	C86.996857,137.384247 86.915314,138.819824 86.795555,140.928040 
	C89.773460,140.928040 92.540527,140.825317 95.289673,141.001709 
	C95.960205,141.044754 96.571960,142.003799 97.210739,142.541672 
	C96.595039,143.103043 96.010406,144.102570 95.358185,144.148819 
	C92.735695,144.334732 90.092308,144.225754 87.130325,144.225754 
	C87.017998,146.137024 86.924919,147.720688 86.799377,149.856857 
	C90.217865,149.856857 93.340401,149.739578 96.443245,149.935059 
	C97.272514,149.987305 98.041580,150.995346 98.838287,151.564575 
	C98.039223,152.119171 97.256920,153.122665 96.438286,153.153229 
	C92.137360,153.313828 87.827248,153.228378 82.709351,153.228378 
	C82.709351,146.229904 82.709351,139.399734 82.709351,132.061646 
	C84.876419,132.061646 87.666161,132.061646 90.928444,132.061646 
z"/>
<path fill="#131313" opacity="1.000000" stroke="none" 
	d="
M159.808716,152.030853 
	C154.712021,152.846863 149.643600,153.203293 143.712601,153.620377 
	C143.712601,146.289078 143.712601,139.462158 143.712601,132.061234 
	C147.807938,132.061234 152.577011,131.979065 157.337601,132.143219 
	C158.118713,132.170135 158.862473,133.280548 159.623489,133.890213 
	C158.806854,134.472000 158.021393,135.495239 157.167908,135.555481 
	C154.222595,135.763474 151.253571,135.635559 147.989899,135.635559 
	C147.901489,137.411118 147.830170,138.843460 147.726501,140.925537 
	C150.719360,140.925537 153.492325,140.822479 156.247101,141.000580 
	C156.906464,141.043213 157.505310,142.022003 158.131989,142.570236 
	C157.511292,143.123199 156.920807,144.107346 156.264603,144.153320 
	C153.642044,144.337021 150.999054,144.229111 148.022049,144.229111 
	C147.922012,146.160141 147.840118,147.741165 147.730881,149.850067 
	C150.847092,149.850067 153.648270,149.683243 156.412888,149.928452 
	C157.593536,150.033188 158.697937,150.997543 159.808716,152.030853 
z"/>
<path fill="#161616" opacity="1.000000" stroke="none" 
	d="
M137.384567,137.582458 
	C135.794403,137.076248 134.518661,135.797653 133.135849,135.668869 
	C131.562469,135.522339 129.893463,136.402618 128.266022,136.836563 
	C129.101578,137.997757 129.704391,139.541245 130.829758,140.226425 
	C132.343964,141.148361 134.682266,140.948242 135.902542,142.064926 
	C137.555038,143.577164 139.581879,145.980331 139.416351,147.818344 
	C139.246414,149.705658 136.800659,152.637314 135.049744,152.872787 
	C131.409241,153.362396 127.569717,152.372208 123.812012,151.990234 
	C123.715210,151.186264 123.618416,150.382294 123.521622,149.578323 
	C124.652374,149.193085 125.767334,148.587219 126.919746,148.504761 
	C127.618912,148.454727 128.431519,149.624954 129.096924,149.535004 
	C131.327179,149.233521 133.514160,148.611938 135.717712,148.112915 
	C134.241302,146.872437 132.864868,145.475449 131.253510,144.446274 
	C130.172165,143.755646 128.412643,143.936310 127.570023,143.105179 
	C126.152237,141.706741 124.240509,139.752197 124.341309,138.144775 
	C124.461090,136.234863 126.213051,133.205200 127.746231,132.865509 
	C130.754364,132.199005 134.119553,132.943695 137.278748,133.460495 
	C137.604691,133.513809 137.536835,135.974335 137.384567,137.582458 
z"/>
<path fill="#141414" opacity="1.000000" stroke="none" 
	d="
M71.951309,140.863678 
	C72.843788,138.481369 73.359116,136.297012 74.503761,134.517441 
	C75.322662,133.244293 76.985123,132.513748 78.271194,131.541092 
	C78.609833,131.898941 78.948463,132.256790 79.287102,132.614655 
	C76.716301,138.884811 74.154228,145.158569 71.570305,151.423309 
	C70.565613,153.859192 68.286903,154.620056 67.160492,152.425262 
	C63.852646,145.979965 61.192764,139.202133 58.243919,132.474167 
	C61.411896,131.204697 63.232525,132.208496 64.312012,135.690323 
	C65.516167,139.574265 67.279099,143.284958 69.118553,147.867630 
	C70.266968,145.072189 71.055191,143.153503 71.951309,140.863678 
z"/>
<path fill="#111111" opacity="1.000000" stroke="none" 
	d="
M178.838745,151.088654 
	C177.908478,152.110489 176.966141,153.103424 175.976685,153.152817 
	C172.178009,153.342514 168.364243,153.229630 163.760757,153.229630 
	C163.760757,146.345886 163.760757,139.669037 163.760757,132.302063 
	C164.503174,132.263397 165.972672,132.186874 167.855942,132.088791 
	C167.855942,138.149353 167.855942,143.746643 167.855942,149.372177 
	C171.755936,149.818924 175.280487,150.222656 178.838745,151.088654 
z"/>
<path fill="#222222" opacity="1.000000" stroke="none" 
	d="
M105.073387,124.836052 
	C106.376854,125.133194 107.258438,125.429855 108.140015,125.726524 
	C108.075836,126.114609 108.011650,126.502693 107.947464,126.890778 
	C104.979622,126.890778 102.011787,126.890778 98.706268,126.890778 
	C98.706268,123.353775 98.706268,119.614540 98.706268,115.776024 
	C100.065773,115.105766 101.554047,114.372025 102.686073,113.813911 
	C104.119644,114.368698 106.050201,115.115814 107.980766,115.862938 
	C108.008904,116.230637 108.037048,116.598335 108.065193,116.966042 
	C105.859482,117.347984 103.653778,117.729927 101.448067,118.111870 
	C101.381271,118.395470 101.314476,118.679070 101.247681,118.962669 
	C102.122200,119.269051 102.978226,119.657173 103.876099,119.860306 
	C104.907387,120.093620 105.975746,120.163094 107.028000,120.303749 
	C107.105827,120.720612 107.183662,121.137466 107.261497,121.554329 
	C105.260017,122.113075 103.258537,122.671822 101.257057,123.230568 
	C101.249413,123.565414 101.241768,123.900261 101.234123,124.235115 
	C102.373253,124.435265 103.512375,124.635422 105.073387,124.836052 
z"/>
<path fill="#1B1B1B" opacity="1.000000" stroke="none" 
	d="
M115.202713,117.672615 
	C114.298271,119.671371 113.183205,121.639999 113.535683,123.296326 
	C113.723183,124.177414 116.452049,124.517677 118.033791,125.102058 
	C118.251823,124.626732 118.469856,124.151405 118.687889,123.676079 
	C117.714729,122.973839 116.741570,122.271606 115.768410,121.569374 
	C115.799843,121.187805 115.831276,120.806244 115.862701,120.424675 
	C117.471962,120.292084 119.081223,120.159492 122.330063,119.891823 
	C120.985504,122.864944 120.596130,125.818741 118.990814,126.816811 
	C116.120056,128.601654 112.305756,128.053101 110.876724,124.702644 
	C109.961098,122.555878 110.166946,118.934814 111.453644,117.063522 
	C113.741386,113.736374 117.334099,114.122551 120.528557,117.512634 
	C118.886475,117.512634 117.244385,117.512634 115.202713,117.672615 
z"/>
<path fill="#1A1A1A" opacity="1.000000" stroke="none" 
	d="
M61.592686,121.052795 
	C63.202145,115.734116 66.235252,113.783691 70.299065,115.101051 
	C73.757835,116.222290 75.558334,120.083725 74.207436,123.483131 
	C72.793610,127.040886 68.495132,128.925995 65.237961,126.814919 
	C63.556271,125.724968 62.763950,123.262794 61.592686,121.052795 
M66.815208,117.762108 
	C66.177841,119.409119 65.194824,121.031395 65.074348,122.715378 
	C65.026588,123.382889 66.937584,124.831726 67.878708,124.768219 
	C69.084259,124.686867 70.840851,123.688530 71.255150,122.646172 
	C72.563988,119.353210 70.832474,117.722488 66.815208,117.762108 
z"/>
<path fill="#151515" opacity="1.000000" stroke="none" 
	d="
M132.103271,124.892563 
	C132.132858,125.730209 131.844101,127.205009 131.406067,127.250763 
	C129.131989,127.488304 126.819847,127.361328 124.184723,127.361328 
	C124.184723,123.266243 124.184723,119.413910 124.184723,115.388634 
	C127.104950,115.388634 130.051117,115.388634 132.997284,115.388634 
	C133.088287,115.809219 133.179291,116.229805 133.270294,116.650391 
	C131.114822,117.179016 128.959335,117.707642 126.803856,118.236275 
	C126.787582,118.615623 126.771317,118.994980 126.755043,119.374336 
	C128.587738,119.691612 130.420441,120.008896 132.253143,120.326172 
	C132.327927,120.705925 132.402725,121.085678 132.477524,121.465431 
	C130.549240,122.052734 128.620956,122.640030 126.692680,123.227333 
	C126.721191,123.673836 126.749695,124.120331 126.778206,124.566833 
	C128.424164,124.668045 130.070114,124.769257 132.103271,124.892563 
z"/>
<path fill="#151515" opacity="1.000000" stroke="none" 
	d="
M55.028191,138.137146 
	C55.028191,143.249603 55.028191,147.881119 55.028191,152.478119 
	C52.299698,153.907227 51.005753,153.475388 51.071568,150.232910 
	C51.190483,144.374069 51.105221,138.511093 51.105221,132.256668 
	C51.660175,132.222839 53.074135,132.136658 55.028191,132.017548 
	C55.028191,134.094345 55.028191,135.875275 55.028191,138.137146 
z"/>
<path fill="#1F1F1F" opacity="1.000000" stroke="none" 
	d="
M52.639332,123.187363 
	C55.199356,123.936424 57.527382,124.358383 59.844521,124.778358 
	C57.586353,128.016357 54.348068,128.571869 51.386513,126.209206 
	C48.541050,123.939163 48.184666,119.596382 50.621506,116.887039 
	C53.111099,114.119049 56.759232,114.197456 60.229126,117.392502 
	C57.514046,119.158646 50.476707,115.193237 52.639332,123.187363 
z"/>
<path fill="#202020" opacity="1.000000" stroke="none" 
	d="
M90.626541,122.838943 
	C92.549866,124.098785 94.459099,124.911118 96.368340,125.723450 
	C96.446571,126.116753 96.524811,126.510056 96.603043,126.903358 
	C93.814293,127.118637 91.025536,127.333916 87.966576,127.570053 
	C87.966576,123.144249 87.966576,119.258926 87.966576,115.340050 
	C90.604340,115.941818 90.604340,115.941818 90.626541,122.838943 
z"/>
<path fill="#181818" opacity="1.000000" stroke="none" 
	d="
M76.940010,125.540558 
	C76.937073,121.810875 76.937073,118.527618 76.937073,114.128716 
	C81.713326,117.267250 78.507507,121.649406 80.287781,124.517113 
	C82.185684,124.813858 84.096390,125.112602 86.007095,125.411346 
	C85.908501,126.137810 85.809914,126.864273 85.711319,127.590729 
	C82.788528,127.056152 79.865738,126.521568 76.940010,125.540558 
z"/>
<path fill="#E9E9E9" opacity="1.000000" stroke="none" 
	d="
M48.997772,165.051529 
	C46.755066,165.217621 44.886959,165.365234 43.505535,165.474396 
	C45.555107,162.843323 47.288258,160.618439 49.237839,158.115723 
	C50.336323,160.285583 51.390598,162.368118 52.617516,164.791672 
	C51.255989,164.892944 50.314178,164.963013 48.997772,165.051529 
z"/>
<path fill="#F5F5F5" opacity="1.000000" stroke="none" 
	d="
M132.141876,159.158600 
	C133.042252,159.161316 133.868332,159.484177 134.694412,159.807022 
	C134.402390,160.330673 134.110367,160.854309 133.818344,161.377945 
	C133.234756,160.744873 132.651169,160.111816 132.141876,159.158600 
z"/>
<path fill="#DEDFDF" opacity="1.000000" stroke="none" 
	d="
M129.054443,165.067047 
	C128.946899,165.110641 128.796249,165.106277 128.781219,165.016602 
	C128.916855,164.931305 129.011322,165.019104 129.054443,165.067047 
z"/>
<path fill="#EFF8EF" opacity="1.000000" stroke="none" 
	d="
M70.166397,93.971497 
	C53.265163,84.202957 44.392288,69.888557 45.267406,50.677364 
	C46.063725,33.195892 54.794571,19.861486 70.434052,12.005411 
	C87.437782,3.464031 104.242386,5.090435 119.218803,16.830570 
	C134.537537,28.839054 140.214432,45.179447 135.545319,63.994385 
	C130.993286,82.337578 118.734764,93.809349 100.113380,98.023994 
	C89.797279,100.358879 79.944603,98.688377 70.166397,93.971497 
M102.668602,11.697595 
	C84.746368,7.164711 69.465820,11.823906 57.891899,26.078506 
	C46.440254,40.182518 44.770634,56.209393 53.015903,72.395454 
	C61.158455,88.379868 74.923241,96.258148 92.873901,95.832451 
	C113.648514,95.339783 130.614410,79.371223 133.654221,58.099171 
	C136.518204,38.057514 123.817909,18.629051 102.668602,11.697595 
z"/>
<path fill="#F3F3F3" opacity="1.000000" stroke="none" 
	d="
M106.870872,138.792557 
	C107.292068,133.087799 111.135597,136.372421 113.336411,136.019623 
	C114.141640,135.890549 115.311119,138.033707 116.314438,139.140289 
	C114.602051,140.291153 113.028214,141.929626 111.141182,142.465820 
	C108.928070,143.094620 106.236420,143.030426 106.870872,138.792557 
z"/>
<path fill="#E8E8E8" opacity="1.000000" stroke="none" 
	d="
M67.168564,117.624054 
	C70.832474,117.722488 72.563988,119.353210 71.255150,122.646172 
	C70.840851,123.688530 69.084259,124.686867 67.878708,124.768219 
	C66.937584,124.831726 65.026588,123.382889 65.074348,122.715378 
	C65.194824,121.031395 66.177841,119.409119 67.168564,117.624054 
z"/>
<path fill="#15AC5B" opacity="1.000000" stroke="none" 
	d="
M103.060539,11.797604 
	C123.817909,18.629051 136.518204,38.057514 133.654221,58.099171 
	C130.614410,79.371223 113.648514,95.339783 92.873901,95.832451 
	C74.923241,96.258148 61.158455,88.379868 53.015903,72.395454 
	C44.770634,56.209393 46.440254,40.182518 57.891899,26.078506 
	C69.465820,11.823906 84.746368,7.164711 103.060539,11.797604 
M119.598274,80.082993 
	C132.508499,65.397270 133.974167,45.635998 123.280518,30.435884 
	C112.622810,15.286860 93.332840,9.531545 76.332146,16.428484 
	C61.730438,22.352188 52.044247,36.489033 51.843929,52.168648 
	C51.636585,68.398605 60.648251,82.977783 75.350151,88.998260 
	C91.596359,95.651131 106.289879,92.641136 119.598274,80.082993 
z"/>
<path fill="#F9FCFA" opacity="1.000000" stroke="none" 
	d="
M119.346817,80.337891 
	C106.289879,92.641136 91.596359,95.651131 75.350151,88.998260 
	C60.648251,82.977783 51.636585,68.398605 51.843929,52.168648 
	C52.044247,36.489033 61.730438,22.352188 76.332146,16.428484 
	C93.332840,9.531545 112.622810,15.286860 123.280518,30.435884 
	C133.974167,45.635998 132.508499,65.397270 119.346817,80.337891 
M85.334106,36.039177 
	C86.155922,34.171925 86.977737,32.304672 87.980865,30.025459 
	C85.810295,30.025459 84.088112,30.025459 82.031433,30.025459 
	C82.031433,39.468113 82.031433,48.702572 81.259491,57.976868 
	C80.487152,57.962807 79.714821,57.948750 78.920906,57.010639 
	C78.920906,46.950603 78.920906,36.890564 78.920906,28.177536 
	C81.879074,24.856628 86.754776,29.162800 88.058281,23.275116 
	C83.454933,23.275116 79.405594,23.275116 74.989189,23.275116 
	C74.989189,27.996819 74.989189,32.448849 74.456291,37.038807 
	C74.283646,37.100914 74.110992,37.163025 73.105812,37.129536 
	C64.787971,37.086067 61.398983,40.385139 61.265652,48.674904 
	C61.239090,50.326488 61.261097,51.978863 61.261421,53.630871 
	C61.263737,65.415169 63.504002,67.716766 75.323463,68.910492 
	C75.543747,71.218307 75.349792,73.664932 76.067322,75.806107 
	C77.754814,80.841698 81.866425,82.432739 86.777184,81.958542 
	C93.478783,81.311417 101.750504,84.958755 105.586044,75.957138 
	C106.565918,73.657463 106.051064,70.720879 107.127296,68.056305 
	C111.371536,68.056305 115.615784,68.056305 120.126839,68.056305 
	C120.126839,64.638390 120.298744,62.135803 120.054901,59.674404 
	C119.931511,58.428833 119.056786,57.257694 118.521751,56.052902 
	C117.989952,57.240475 117.066978,58.408268 117.005714,59.619640 
	C116.867241,62.357582 117.313766,64.906578 113.103958,64.856346 
	C99.466057,64.693634 85.823799,64.897301 72.185837,64.737282 
	C66.706772,64.672997 64.991913,62.563587 64.916595,56.915344 
	C64.883339,54.420692 64.904556,51.925217 64.911179,49.430145 
	C64.930946,41.977398 65.408974,41.433399 73.532166,40.662296 
	C74.001350,40.775948 74.470528,40.889603 74.965942,41.701313 
	C74.955536,42.395287 74.945122,43.089264 74.076263,43.809944 
	C71.651718,44.114529 68.266418,42.838753 68.051582,47.015682 
	C67.864616,50.650696 67.774628,54.328133 68.153275,57.933098 
	C68.274498,59.087250 70.014755,60.977551 71.038322,60.993565 
	C84.454483,61.203514 97.875221,61.169537 111.293762,61.063984 
	C112.126419,61.057434 113.297943,60.106194 113.675148,59.297516 
	C114.014313,58.570385 113.753792,56.842426 113.263687,56.613434 
	C112.467529,56.241436 111.253105,56.662899 110.242264,56.877041 
	C108.880905,57.165432 107.545204,57.574924 106.185715,57.035290 
	C106.236603,53.745056 106.287491,50.454826 107.089790,47.146076 
	C107.899559,47.244843 108.729317,47.263813 109.514572,47.460461 
	C110.798676,47.782036 112.053795,48.219292 113.321144,48.607750 
	C113.500214,47.226639 113.679276,45.845531 113.906250,44.094894 
	C111.033066,43.930523 108.740540,43.799370 106.269852,43.014053 
	C106.321037,42.121292 106.372223,41.228535 107.285957,40.293686 
	C110.368034,40.293686 113.450111,40.293686 116.938133,40.293686 
	C116.938133,42.898125 116.802406,44.870121 117.006256,46.806366 
	C117.085625,47.560207 117.930389,48.233463 118.426521,48.943424 
	C118.982452,48.280083 119.979187,47.641708 120.018425,46.949097 
	C120.193260,43.863155 120.094322,40.761711 120.094322,36.862675 
	C115.150795,36.862675 110.734215,36.862675 106.208015,35.953724 
	C106.208015,31.725609 106.208015,27.497496 106.208015,23.014202 
	C102.661057,23.014202 99.854736,22.872787 97.076004,23.087860 
	C96.048286,23.167406 95.085457,24.085329 94.093033,24.620890 
	C95.168419,25.260830 96.179787,26.244295 97.334335,26.459461 
	C99.027351,26.774977 100.822823,26.540710 102.930229,26.540710 
	C102.930229,37.446667 102.930229,47.691883 102.182762,57.950756 
	C101.436058,57.945911 100.689354,57.941067 99.891586,57.012897 
	C99.891586,47.993732 99.891586,38.974567 99.891586,29.555395 
	C97.491005,29.712301 95.809837,29.822186 94.023834,29.938923 
	C94.777885,32.649578 95.374100,34.792866 95.075531,37.019775 
	C91.872398,36.935944 88.669266,36.852116 85.334106,36.039177 
z"/>
<path fill="#949F9D" opacity="1.000000" stroke="none" 
	d="
M75.322487,68.077347 
	C63.504002,67.716766 61.263737,65.415169 61.261421,53.630871 
	C61.261097,51.978863 61.239090,50.326488 61.265652,48.674904 
	C61.398983,40.385139 64.787971,37.086067 73.512070,37.456379 
	C73.578751,38.622341 73.239182,39.461460 72.899605,40.300575 
	C65.408974,41.433399 64.930946,41.977398 64.911179,49.430145 
	C64.904556,51.925217 64.883339,54.420692 64.916595,56.915344 
	C64.991913,62.563587 66.706772,64.672997 72.185837,64.737282 
	C85.823799,64.897301 99.466057,64.693634 113.103958,64.856346 
	C117.313766,64.906578 116.867241,62.357582 117.005714,59.619640 
	C117.066978,58.408268 117.989952,57.240475 118.521751,56.052902 
	C119.056786,57.257694 119.931511,58.428833 120.054901,59.674404 
	C120.298744,62.135803 120.126839,64.638390 120.126839,68.056305 
	C115.615784,68.056305 111.371536,68.056305 106.271072,68.010880 
	C104.601189,67.997124 103.787529,68.028786 102.570137,68.016449 
	C101.357292,68.004890 100.548195,68.037323 99.410843,68.059952 
	C98.091995,68.387375 97.101387,68.724617 95.862549,68.712852 
	C93.539627,68.235229 91.448853,68.226265 89.393883,67.950546 
	C86.128304,67.512398 85.518036,69.300087 85.416336,71.946014 
	C84.089043,70.990005 83.105904,70.039276 81.929367,68.763550 
	C80.763046,68.316475 79.790115,68.194382 78.466705,68.045319 
	C77.184982,68.038017 76.253731,68.057678 75.322487,68.077347 
z"/>
<path fill="#98A09F" opacity="1.000000" stroke="none" 
	d="
M99.942650,57.936222 
	C100.689354,57.941067 101.436058,57.945911 102.964500,57.983070 
	C104.563652,57.987736 105.381073,57.960091 106.198486,57.932442 
	C107.545204,57.574924 108.880905,57.165432 110.242264,56.877041 
	C111.253105,56.662899 112.467529,56.241436 113.263687,56.613434 
	C113.753792,56.842426 114.014313,58.570385 113.675148,59.297516 
	C113.297943,60.106194 112.126419,61.057434 111.293762,61.063984 
	C97.875221,61.169537 84.454483,61.203514 71.038322,60.993565 
	C70.014755,60.977551 68.274498,59.087250 68.153275,57.933098 
	C67.774628,54.328133 67.864616,50.650696 68.051582,47.015682 
	C68.266418,42.838753 71.651718,44.114529 74.600143,44.190765 
	C75.105309,45.372650 75.086594,46.173710 74.646362,46.980160 
	C68.186058,47.900875 71.960846,52.497845 71.297585,55.312702 
	C70.574265,58.382378 73.246040,58.052246 75.625824,57.965530 
	C76.977882,57.965466 77.960182,57.950077 78.942482,57.934692 
	C79.714821,57.948750 80.487152,57.962807 82.057961,57.984745 
	C83.680702,57.966042 84.504974,57.939457 85.765656,57.914932 
	C89.482246,57.923439 92.762428,57.929882 96.432922,57.968712 
	C97.863029,57.979469 98.902840,57.957848 99.942650,57.936222 
z"/>
<path fill="#18AC5C" opacity="1.000000" stroke="none" 
	d="
M78.931694,57.472664 
	C77.960182,57.950077 76.977882,57.965466 75.655243,57.512650 
	C75.232567,53.687885 75.150223,50.331329 75.067886,46.974770 
	C75.086594,46.173710 75.105309,45.372650 75.029366,44.177414 
	C74.945122,43.089264 74.955536,42.395287 75.057907,40.953899 
	C75.096306,39.104618 75.042747,38.002750 74.989197,36.900883 
	C74.989189,32.448849 74.989189,27.996819 74.989189,23.275116 
	C79.405594,23.275116 83.454933,23.275116 88.058281,23.275116 
	C86.754776,29.162800 81.879074,24.856628 78.920906,28.177536 
	C78.920906,36.890564 78.920906,46.950603 78.931694,57.472664 
z"/>
<path fill="#0DA854" opacity="1.000000" stroke="none" 
	d="
M106.192101,57.483868 
	C105.381073,57.960091 104.563652,57.987736 103.338234,57.976242 
	C102.930229,47.691883 102.930229,37.446667 102.930229,26.540710 
	C100.822823,26.540710 99.027351,26.774977 97.334335,26.459461 
	C96.179787,26.244295 95.168419,25.260830 94.093033,24.620892 
	C95.085457,24.085329 96.048286,23.167406 97.076004,23.087860 
	C99.854736,22.872787 102.661057,23.014202 106.208015,23.014202 
	C106.208015,27.497496 106.208015,31.725609 106.190353,36.839470 
	C106.256264,38.595406 106.339844,39.465588 106.423416,40.335773 
	C106.372223,41.228535 106.321037,42.121292 106.253983,43.772278 
	C106.271530,45.408535 106.304955,46.286564 106.338379,47.164593 
	C106.287491,50.454826 106.236603,53.745056 106.192101,57.483868 
z"/>
<path fill="#12A956" opacity="1.000000" stroke="none" 
	d="
M75.322975,68.493919 
	C76.253731,68.057678 77.184982,68.038017 78.467819,68.471878 
	C78.239227,73.415215 79.303276,77.351357 83.765480,79.122787 
	C85.941635,79.986694 88.628830,79.507782 91.070808,79.767418 
	C100.447044,80.764343 104.115387,75.739487 102.973877,68.060448 
	C103.787529,68.028786 104.601189,67.997124 105.818893,68.021194 
	C106.051064,70.720879 106.565918,73.657463 105.586044,75.957138 
	C101.750504,84.958755 93.478783,81.311417 86.777184,81.958542 
	C81.866425,82.432739 77.754814,80.841698 76.067322,75.806107 
	C75.349792,73.664932 75.543747,71.218307 75.322975,68.493919 
z"/>
<path fill="#22AF63" opacity="1.000000" stroke="none" 
	d="
M99.917114,57.474560 
	C98.902840,57.957848 97.863029,57.979469 96.459038,57.520531 
	C96.045509,53.731255 95.996170,50.422539 95.995499,46.705765 
	C95.999062,45.478970 95.953949,44.660229 95.988541,43.477814 
	C96.004776,42.136997 95.941292,41.159851 95.946533,39.780853 
	C96.000275,38.564716 95.985298,37.750431 95.970322,36.936150 
	C95.374100,34.792866 94.777885,32.649578 94.023834,29.938923 
	C95.809837,29.822186 97.491005,29.712301 99.891586,29.555395 
	C99.891586,38.974567 99.891586,47.993732 99.917114,57.474560 
z"/>
<path fill="#0CA854" opacity="1.000000" stroke="none" 
	d="
M85.329247,57.912872 
	C84.504974,57.939457 83.680702,57.966042 82.443932,57.964828 
	C82.031433,48.702572 82.031433,39.468113 82.031433,30.025459 
	C84.088112,30.025459 85.810295,30.025459 87.980865,30.025459 
	C86.977737,32.304672 86.155922,34.171925 85.307098,36.841480 
	C85.387062,38.523911 85.494019,39.404037 85.521912,40.448372 
	C85.442848,40.612579 85.371681,40.970062 85.221786,41.396782 
	C85.201408,43.632412 85.330933,45.441315 85.400848,47.686852 
	C85.337250,51.386612 85.333252,54.649742 85.329247,57.912872 
z"/>
<path fill="#9B9EA0" opacity="1.000000" stroke="none" 
	d="
M106.854691,40.314728 
	C106.339844,39.465588 106.256264,38.595406 106.245163,37.293945 
	C110.734215,36.862675 115.150795,36.862675 120.094322,36.862675 
	C120.094322,40.761711 120.193260,43.863155 120.018425,46.949097 
	C119.979187,47.641708 118.982452,48.280083 118.426521,48.943424 
	C117.930389,48.233463 117.085625,47.560207 117.006256,46.806366 
	C116.802406,44.870121 116.938133,42.898125 116.938133,40.293686 
	C113.450111,40.293686 110.368034,40.293686 106.854691,40.314728 
z"/>
<path fill="#9BABA6" opacity="1.000000" stroke="none" 
	d="
M85.600983,40.284164 
	C85.494019,39.404037 85.387062,38.523911 85.373116,37.206032 
	C88.669266,36.852116 91.872398,36.935944 95.522934,36.977962 
	C95.985298,37.750431 96.000275,38.564716 95.505974,39.761238 
	C91.864792,40.190376 88.732887,40.237270 85.600983,40.284164 
z"/>
<path fill="#A2AAA8" opacity="1.000000" stroke="none" 
	d="
M106.714081,47.155334 
	C106.304955,46.286564 106.271530,45.408535 106.343063,44.099361 
	C108.740540,43.799370 111.033066,43.930523 113.906250,44.094894 
	C113.679276,45.845531 113.500214,47.226639 113.321144,48.607750 
	C112.053795,48.219292 110.798676,47.782036 109.514572,47.460461 
	C108.729317,47.263813 107.899559,47.244843 106.714081,47.155334 
z"/>
<path fill="#ACAEB0" opacity="1.000000" stroke="none" 
	d="
M74.722748,36.969845 
	C75.042747,38.002750 75.096306,39.104618 75.044785,40.604874 
	C74.470528,40.889603 74.001350,40.775948 73.215881,40.481438 
	C73.239182,39.461460 73.578751,38.622341 73.928329,37.504177 
	C74.110992,37.163025 74.283646,37.100914 74.722748,36.969845 
z"/>
<path fill="#D9F1E4" opacity="1.000000" stroke="none" 
	d="
M102.570137,68.016449 
	C104.115387,75.739487 100.447044,80.764343 91.070808,79.767418 
	C88.628830,79.507782 85.941635,79.986694 83.765480,79.122787 
	C79.303276,77.351357 78.239227,73.415215 78.818298,68.498848 
	C79.790115,68.194382 80.763046,68.316475 81.886841,69.188522 
	C81.329079,74.174889 83.319901,75.611565 87.322456,75.202446 
	C89.114822,75.019241 90.941490,75.172371 92.752586,75.171478 
	C99.660179,75.168076 99.660179,75.167862 99.739090,68.069756 
	C100.548195,68.037323 101.357292,68.004890 102.570137,68.016449 
z"/>
<path fill="#08A049" opacity="1.000000" stroke="none" 
	d="
M99.410843,68.059952 
	C99.660179,75.167862 99.660179,75.168076 92.752586,75.171478 
	C90.941490,75.172371 89.114822,75.019241 87.322456,75.202446 
	C83.319901,75.611565 81.329079,74.174889 82.080231,69.513504 
	C83.105904,70.039276 84.089043,70.990005 85.661613,72.305344 
	C88.069023,72.763916 89.887787,72.946320 91.704819,72.930473 
	C94.224464,72.908531 96.263687,72.195000 96.110771,69.061844 
	C97.101387,68.724617 98.091995,68.387375 99.410843,68.059952 
z"/>
<path fill="#F6FBF8" opacity="1.000000" stroke="none" 
	d="
M95.862549,68.712845 
	C96.263687,72.195000 94.224464,72.908531 91.704819,72.930473 
	C89.887787,72.946320 88.069023,72.763916 86.005760,72.310608 
	C85.518036,69.300087 86.128304,67.512398 89.393883,67.950546 
	C91.448853,68.226265 93.539627,68.235229 95.862549,68.712845 
z"/>
<path fill="#FEFEFE" opacity="1.000000" stroke="none" 
	d="
M85.765656,57.914932 
	C85.333252,54.649742 85.337250,51.386612 85.822823,47.638561 
	C89.518532,47.140369 92.732681,47.127094 95.946823,47.113823 
	C95.996170,50.422539 96.045509,53.731255 96.068741,57.488152 
	C92.762428,57.929882 89.482246,57.923439 85.765656,57.914932 
z"/>
<path fill="#F2F2F3" opacity="1.000000" stroke="none" 
	d="
M74.646362,46.980160 
	C75.150223,50.331329 75.232567,53.687885 75.285484,57.497322 
	C73.246040,58.052246 70.574265,58.382378 71.297585,55.312702 
	C71.960846,52.497845 68.186058,47.900875 74.646362,46.980160 
z"/>
<path fill="#E9E9EA" opacity="1.000000" stroke="none" 
	d="
M85.521912,40.448372 
	C88.732887,40.237270 91.864792,40.190376 95.437256,40.163094 
	C95.941292,41.159851 96.004776,42.136997 95.545456,43.504997 
	C93.204842,43.902805 91.274147,44.294651 89.602173,43.804325 
	C88.048561,43.348713 86.770859,41.952274 85.371681,40.970062 
	C85.371681,40.970062 85.442848,40.612579 85.521912,40.448372 
z"/>
<path fill="#97A9A3" opacity="1.000000" stroke="none" 
	d="
M85.221786,41.396782 
	C86.770859,41.952274 88.048561,43.348713 89.602173,43.804325 
	C91.274147,44.294651 93.204842,43.902805 95.465744,43.868671 
	C95.953949,44.660229 95.999062,45.478970 95.995499,46.705765 
	C92.732681,47.127094 89.518532,47.140369 85.882416,47.201931 
	C85.330933,45.441315 85.201408,43.632412 85.221786,41.396782 
z"/>
</svg>