<svg version="1.1" id="Layer_1" xmlns="http://www.w3.org/2000/svg" xmlns:xlink="http://www.w3.org/1999/xlink" x="0px" y="0px"
	 width="100%" viewBox="0 0 736 560" enable-background="new 0 0 736 560" xml:space="preserve">
<path fill="#000000" opacity="1.000000" stroke="none" 
	d="
M435.336060,116.808891 
	C441.126556,116.813812 446.460815,116.941132 451.786346,116.779778 
	C455.795502,116.658310 457.273529,118.414742 456.697266,122.253754 
	C456.524994,123.401596 456.548279,124.577362 456.426422,125.734489 
	C456.055817,129.253952 457.266052,130.932083 461.152802,130.744415 
	C466.636597,130.479645 472.145508,130.786652 477.639893,130.670197 
	C480.824127,130.602692 482.243042,131.949585 482.196899,135.095459 
	C482.145599,138.592651 482.206604,142.091400 482.207123,145.589462 
	C482.216217,205.557968 482.225586,265.526489 482.228760,325.494995 
	C482.229156,333.300507 482.213409,333.284546 474.516174,333.283020 
	C408.384216,333.269806 342.252289,333.263428 276.120331,333.253143 
	C268.813568,333.251984 268.792847,333.246490 268.793121,326.165802 
	C268.795593,263.532013 268.803040,200.898239 268.818024,138.264450 
	C268.819824,130.680740 268.844543,130.677338 276.644043,130.671677 
	C280.975098,130.668533 285.312683,130.534088 289.635162,130.728714 
	C293.155518,130.887238 294.851196,129.814056 294.759613,125.961990 
	C294.516113,115.718086 294.262848,116.922142 304.451843,116.799820 
	C304.951538,116.793823 305.457855,116.739174 305.950073,116.798485 
	C315.197510,117.912888 322.130127,115.752670 328.501648,107.533432 
	C337.261108,96.233795 350.625275,91.159874 364.740051,89.445221 
	C386.389862,86.815216 406.206390,91.017891 422.350006,106.871178 
	C424.236725,108.723961 425.998016,110.793022 427.407349,113.021217 
	C429.217712,115.883591 431.524933,117.240768 435.336060,116.808891 
M469.625885,171.500031 
	C469.623138,163.670639 469.511292,155.839050 469.667877,148.012848 
	C469.737000,144.558899 468.439117,143.215790 464.991028,143.312439 
	C459.498291,143.466415 453.992432,143.183029 448.501801,143.369934 
	C444.756622,143.497437 443.320923,141.919098 443.649109,138.328873 
	C443.754822,137.172333 443.573639,135.988998 443.686340,134.833801 
	C444.016327,131.452209 442.702545,129.925400 439.152832,130.094757 
	C435.164551,130.285019 431.156464,130.020203 427.161560,130.125854 
	C424.165283,130.205109 422.195679,129.038712 420.725708,126.385483 
	C412.867401,112.201691 400.517487,104.456581 384.674500,102.613373 
	C363.975616,100.205208 345.078674,103.915764 332.920532,122.805527 
	C329.061127,128.801773 325.042053,131.179474 318.431671,130.187210 
	C317.779816,130.089340 317.100800,130.177536 316.434540,130.169052 
	C307.031433,130.049454 307.064484,129.516434 307.418121,138.949127 
	C307.557312,142.661240 305.959167,143.515396 302.684113,143.398987 
	C297.859009,143.227509 293.023407,143.347427 288.192261,143.350861 
	C281.404968,143.355698 281.379700,143.358688 281.378143,150.317764 
	C281.366272,204.459488 281.366882,258.601227 281.357849,312.742950 
	C281.356628,319.957733 281.341583,319.988556 288.383331,319.992340 
	C347.856049,320.024323 407.328766,320.043976 466.801483,320.069519 
	C467.640228,320.069855 468.476379,320.090454 469.624878,318.585602 
	C469.624878,270.382721 469.624878,221.441376 469.625885,171.500031 
z"/>
<path fill="#000000" opacity="1.000000" stroke="none" 
	d="
M267.732452,386.339294 
	C299.363953,382.079193 315.729523,404.780304 314.754578,431.323029 
	C314.347809,442.397583 311.580719,452.704773 303.815552,461.103210 
	C285.504303,480.907745 251.656784,475.781586 240.723724,451.147644 
	C233.232681,434.269135 234.189667,417.415405 244.099380,401.503021 
	C249.447250,392.915741 257.690887,388.569122 267.732452,386.339294 
M297.588165,451.962952 
	C303.333649,435.746643 303.271851,419.687592 296.088074,403.899414 
	C292.086487,395.104889 284.743042,390.585327 275.448914,390.680817 
	C265.740417,390.780518 258.310883,395.693665 254.438370,404.962585 
	C247.182938,422.328613 247.444092,439.612823 255.786499,456.527130 
	C258.539398,462.108704 263.208374,465.979950 269.479950,467.255310 
	C280.640289,469.524780 290.701233,466.680084 297.588165,451.962952 
z"/>
<path fill="#000000" opacity="1.000000" stroke="none" 
	d="
M480.076721,452.473389 
	C480.555542,453.701721 480.933929,454.600037 481.768066,456.580261 
	C484.922058,446.969208 487.746765,438.348206 490.581207,429.730469 
	C491.830139,425.933319 493.108887,422.145996 494.354767,418.347900 
	C495.102875,416.067261 495.838043,413.853485 498.915588,413.925781 
	C501.964325,413.997467 502.595276,416.191498 503.304474,418.511322 
	C506.514648,429.012207 509.773254,439.498383 513.056213,449.976807 
	C513.638977,451.836761 514.419861,453.634613 515.441711,456.341949 
	C519.651978,444.925690 522.468689,434.153290 525.483032,423.449097 
	C526.500732,419.835022 524.688110,417.755707 521.092529,417.047150 
	C519.631958,416.759277 517.822266,416.452789 518.230530,414.386719 
	C518.547302,412.783875 520.184998,412.771179 521.515198,412.768555 
	C527.180298,412.757507 532.845581,412.782562 538.510498,412.832886 
	C539.714478,412.843597 540.928284,413.098541 541.157654,414.561005 
	C541.348633,415.779022 540.470886,416.479675 539.461792,416.668365 
	C533.426453,417.796722 531.958252,422.747223 530.441345,427.521362 
	C526.308289,440.529388 522.279846,453.570923 518.272278,466.618286 
	C517.408386,469.430695 516.671570,472.024902 512.900879,472.090637 
	C509.265259,472.153992 508.573578,469.537170 507.746124,467.010712 
	C503.966278,455.469543 500.238190,443.911377 496.415741,432.125732 
	C494.610962,432.865540 494.616730,434.503235 494.192444,435.752380 
	C490.603394,446.318970 487.037628,456.893860 483.560120,467.497528 
	C482.645813,470.285400 481.426361,472.281403 478.029785,472.104553 
	C474.706848,471.931580 474.246704,469.614838 473.506744,467.100128 
	C470.029602,455.283142 466.411346,443.507629 462.830841,431.721130 
	C459.572906,420.996399 459.565765,420.998566 452.208374,415.018036 
	C452.511719,412.661163 454.391632,412.833649 455.993744,412.813477 
	C462.159180,412.735779 468.325745,412.733002 474.491882,412.734528 
	C475.813416,412.734833 477.452393,412.628052 477.827911,414.242340 
	C478.308777,416.309631 476.490173,416.709473 475.057617,416.993713 
	C471.227844,417.753632 470.836884,420.093140 471.774231,423.332855 
	C474.549469,432.924408 477.247833,442.538208 480.076721,452.473389 
z"/>
<path fill="#000000" opacity="1.000000" stroke="none" 
	d="
M211.208664,428.013855 
	C211.221085,438.833893 211.254044,449.156677 211.235229,459.479401 
	C211.228333,463.262878 211.802124,466.527985 216.456177,467.150085 
	C217.671616,467.312469 218.740356,468.075867 218.673965,469.450531 
	C218.585800,471.276520 217.044449,471.241608 215.720459,471.378052 
	C213.405182,471.616669 211.095535,471.955353 208.774261,472.082306 
	C200.638016,472.527161 200.636520,472.499664 199.282257,464.152527 
	C195.738159,467.782318 191.846512,470.414673 187.183105,471.842499 
	C173.940964,475.896881 163.525146,468.830627 163.045486,455.023468 
	C162.698853,445.045410 162.929123,435.047089 162.915726,425.057800 
	C162.910294,421.016876 162.597885,417.250549 157.334854,416.648224 
	C156.078842,416.504486 155.228897,415.569397 155.413086,414.175751 
	C155.591888,412.822754 156.623993,412.127502 157.853745,412.069855 
	C162.672668,411.843964 167.505341,411.492096 172.315750,411.664642 
	C175.078598,411.763794 174.827606,414.318237 174.675507,416.313873 
	C173.737976,428.615173 173.963837,440.928467 174.264969,453.241608 
	C174.301315,454.727203 174.518219,456.227417 174.825287,457.684235 
	C176.847626,467.278778 185.168884,470.109833 192.631805,463.582794 
	C197.218658,459.571198 199.611176,454.275604 199.702103,448.151489 
	C199.823181,439.994873 199.674072,431.834503 199.759491,423.676971 
	C199.796143,420.178528 199.203659,417.376038 195.039810,416.772034 
	C193.677521,416.574402 192.443680,415.831024 192.735199,414.091309 
	C193.014465,412.424622 194.435135,412.104462 195.757492,412.019928 
	C200.073456,411.743896 204.397507,411.595673 208.717926,411.387634 
	C210.977783,411.278870 211.525787,412.521759 211.455429,414.535156 
	C211.304276,418.859894 211.283081,423.189209 211.208664,428.013855 
z"/>
<path fill="#000000" opacity="1.000000" stroke="none" 
	d="
M446.954224,433.069702 
	C446.709351,441.368469 446.247650,449.181183 446.308990,456.989777 
	C446.342194,461.215210 445.395966,466.445953 451.974243,467.363068 
	C452.788422,467.476593 453.290863,468.351837 453.295349,469.279694 
	C453.301208,470.494385 452.528748,471.040466 451.459412,471.262970 
	C447.863007,472.011383 444.259796,472.489929 440.554077,472.200226 
	C436.584106,471.889923 437.014099,467.837250 434.845551,465.636719 
	C432.859467,466.912659 430.949799,468.180328 429.000732,469.384247 
	C422.446991,473.432526 415.348022,473.763214 408.312317,471.453979 
	C397.837341,468.015930 395.436188,451.813416 404.021454,443.943451 
	C409.637451,438.795349 416.814514,437.902222 423.885590,436.759430 
	C425.032074,436.574158 426.215515,436.623291 427.365387,436.452911 
	C436.005310,435.172638 437.333527,432.995087 435.430023,423.309998 
	C434.204193,417.072906 428.732483,413.912445 422.146790,415.634674 
	C417.266266,416.910980 415.119781,420.422455 414.633087,425.113525 
	C414.342834,427.911407 413.335999,429.832703 410.337036,430.386322 
	C407.528961,430.904663 404.895447,430.587494 402.995239,428.403809 
	C401.170837,426.307251 402.217865,423.927795 403.259827,421.832031 
	C407.492554,413.318512 415.623077,411.936371 423.827393,410.877533 
	C427.994629,410.339722 432.149902,410.940155 436.199860,411.958069 
	C441.334564,413.248657 444.464722,416.644684 445.945251,421.689148 
	C446.994873,425.265472 447.093567,428.907227 446.954224,433.069702 
M424.138702,441.465637 
	C421.827484,442.397095 419.414429,443.136688 417.225342,444.298279 
	C411.958618,447.093018 410.618835,451.904114 411.030334,457.426453 
	C411.317749,461.284302 412.553802,464.857941 416.483856,466.240387 
	C421.531281,468.015900 425.985962,466.238251 429.769562,462.742676 
	C431.101074,461.512573 432.479279,460.163208 433.308441,458.590118 
	C436.139740,453.218567 437.195465,446.975464 435.006805,441.713165 
	C433.421112,437.900604 428.420624,441.545135 424.138702,441.465637 
z"/>
<path fill="#000000" opacity="1.000000" stroke="none" 
	d="
M550.890625,430.321594 
	C544.013794,429.654175 542.232727,426.622864 545.503357,421.095428 
	C550.075806,413.367859 557.904114,411.674561 566.039062,410.867096 
	C567.522461,410.719818 569.036560,410.752045 570.528503,410.838654 
	C585.578552,411.712708 589.163757,418.355988 588.590393,431.421753 
	C588.167114,441.069092 588.182373,450.700500 588.218140,460.339600 
	C588.230469,463.648895 588.961914,466.698181 593.231384,467.080475 
	C594.441467,467.188812 595.390198,468.038849 595.375000,469.438812 
	C595.358643,470.948242 594.249634,471.275421 593.020569,471.488068 
	C589.731445,472.057037 586.434326,472.323669 583.086914,472.229553 
	C578.572693,472.102661 578.361877,468.354065 577.145264,464.879700 
	C570.759033,470.321930 563.875000,473.384857 555.528625,472.499969 
	C548.017944,471.703705 543.205322,468.202118 541.238281,461.392700 
	C539.162720,454.207611 541.809204,446.302612 547.738464,442.391571 
	C555.119263,437.522949 563.714050,436.807709 572.112061,436.060455 
	C576.841858,435.639618 578.221436,433.801331 577.701721,429.528748 
	C577.501709,427.884247 577.692688,426.187469 577.443726,424.554413 
	C576.486450,418.275085 573.464966,415.455566 567.703491,415.295441 
	C561.444336,415.121490 557.498169,418.072174 556.544067,424.287415 
	C556.028137,427.648560 555.145569,430.091675 550.890625,430.321594 
M576.875122,453.314209 
	C577.800842,450.061981 577.700745,446.731842 577.672485,443.399811 
	C577.655518,441.381775 576.832520,440.160217 574.717590,440.303131 
	C568.526184,440.721527 562.376831,441.567657 557.303650,445.500549 
	C551.767944,449.792023 550.813232,458.666626 555.048401,463.911011 
	C558.470947,468.149139 565.577209,467.882355 571.225891,463.282990 
	C574.156067,460.897156 576.266357,457.999542 576.875122,453.314209 
z"/>
<path fill="#000000" opacity="1.000000" stroke="none" 
	d="
M340.956787,457.815582 
	C341.441437,466.652130 342.821838,467.795105 351.073975,466.354889 
	C352.806519,466.052521 354.536896,465.501678 355.204559,467.684387 
	C355.885437,469.910309 353.976685,470.522278 352.459595,471.127563 
	C348.016998,472.899963 343.353607,473.159088 338.735260,472.316132 
	C333.652802,471.388458 330.383057,467.488708 329.705200,462.298187 
	C328.016846,449.370636 329.263824,436.381470 328.898987,423.425812 
	C328.808411,420.209534 329.356476,416.771210 324.364288,417.087769 
	C323.291595,417.155762 322.466248,416.436615 322.302521,415.302734 
	C322.097626,413.883759 323.022278,413.068451 324.189606,412.737335 
	C329.994202,411.090942 332.057129,406.599182 333.216522,401.288574 
	C333.490356,400.034088 334.019653,398.667145 334.862335,397.746277 
	C335.998413,396.504791 337.711761,395.837860 339.404816,396.453613 
	C340.861481,396.983337 340.894409,398.513702 340.954651,399.861237 
	C340.984375,400.525543 340.969971,401.191895 340.974884,401.857300 
	C341.046814,411.650024 341.046173,411.655029 350.465698,412.722687 
	C351.979736,412.894257 353.706543,412.921143 353.574158,415.039337 
	C353.469482,416.713837 351.985962,416.915314 350.623962,417.111328 
	C347.711761,417.530426 343.962250,415.864990 342.028656,418.242676 
	C339.671143,421.141602 341.018341,425.295319 340.965942,428.889923 
	C340.827667,438.372009 340.942383,447.857758 340.956787,457.815582 
z"/>
<path fill="#000000" opacity="1.000000" stroke="none" 
	d="
M367.928711,465.581116 
	C366.752197,462.151459 366.709229,458.992188 366.710663,455.823090 
	C366.715790,444.673950 366.669434,433.524597 366.727509,422.375763 
	C366.742676,419.460388 366.613770,416.953186 362.676910,417.116180 
	C361.498413,417.164948 360.290894,416.709686 360.019928,415.321381 
	C359.685211,413.606171 361.010559,412.916290 362.250153,412.477692 
	C367.665558,410.561493 369.694794,406.101074 370.722534,401.051971 
	C371.304413,398.193359 372.672089,396.179504 375.560364,396.378387 
	C379.042847,396.618195 377.852386,399.751160 378.189972,401.859802 
	C378.241974,402.184601 378.200409,402.524292 378.203247,402.857086 
	C378.282867,412.239471 378.282196,412.254578 387.536865,412.692932 
	C389.067719,412.765411 390.807709,412.605103 390.982635,414.633118 
	C391.190704,417.045380 389.238861,417.009552 387.558472,417.170624 
	C378.209015,418.066895 378.208313,418.072388 378.202179,427.575531 
	C378.195526,437.892639 378.146820,448.209991 378.201324,458.526764 
	C378.240112,465.864807 381.064392,468.067657 388.292603,466.451965 
	C389.889984,466.094910 391.539642,464.938110 392.455322,467.303375 
	C393.452148,469.878082 391.379608,470.439056 389.719208,471.124054 
	C380.827332,474.792236 372.670258,472.829651 367.928711,465.581116 
z"/>
<path fill="#000000" opacity="1.000000" stroke="none" 
	d="
M447.295410,259.967957 
	C447.339142,262.959045 447.429443,265.457794 447.383179,267.954041 
	C447.335999,270.501343 447.813049,272.051758 450.855957,272.945374 
	C455.417542,274.284912 452.848450,278.578705 453.229889,281.561127 
	C453.559875,284.140991 451.454742,284.856293 449.278473,284.983521 
	C447.617401,285.080597 445.949646,285.091858 444.284851,285.091980 
	C397.984680,285.095215 351.684479,285.095123 305.384308,285.086884 
	C297.859802,285.085571 295.981476,282.656128 297.723022,275.341614 
	C297.968201,274.311890 298.299347,273.091553 299.331268,273.065674 
	C304.300507,272.941315 303.318665,269.467499 303.460999,266.364685 
	C304.192841,250.411514 303.149506,234.413879 304.685028,218.483353 
	C304.980743,215.415833 304.793549,212.878769 301.757050,210.697067 
	C299.265625,208.906998 298.418976,205.488815 297.943604,202.353378 
	C297.578186,199.943314 298.768799,198.516556 301.213287,198.319794 
	C303.201538,198.159744 305.200684,198.060257 307.194977,198.060608 
	C353.161896,198.068527 399.128876,198.070251 445.095612,198.175018 
	C447.826813,198.181244 451.766907,196.627045 452.811157,200.604568 
	C453.817383,204.437271 452.154907,208.536819 449.201508,210.787277 
	C446.382507,212.935318 445.964325,215.192429 446.256317,218.046387 
	C447.666748,231.832138 446.984741,245.664612 447.295410,259.967957 
M336.621002,229.445221 
	C335.879974,222.408875 339.079285,214.915009 332.330261,208.596970 
	C329.481567,205.930206 326.144348,205.232941 324.745087,206.680588 
	C321.913574,209.610077 317.758698,211.918274 318.028046,217.436798 
	C318.758057,232.392731 318.884827,247.377914 319.267090,262.351105 
	C319.556671,273.693817 316.963593,272.637695 330.126282,272.726410 
	C333.347778,272.748108 335.030090,271.893005 335.136536,268.298492 
	C335.510437,255.670105 336.107178,243.048309 336.621002,229.445221 
M399.845734,260.462524 
	C400.167694,245.834335 400.534790,231.206924 400.781677,216.577469 
	C400.848297,212.632217 395.487152,206.349823 392.174530,206.135223 
	C387.740601,205.848007 382.078888,211.707458 382.203888,216.701492 
	C382.453491,226.670135 382.925568,236.633316 383.161530,246.602158 
	C383.330811,253.754745 383.380157,260.914856 383.256317,268.067657 
	C383.195953,271.553253 384.621155,272.806305 388.002533,272.725311 
	C401.400360,272.404358 399.326263,274.153412 399.845734,260.462524 
M416.296906,271.012054 
	C418.641144,272.590546 428.703522,273.372955 430.493896,272.116791 
	C431.587830,271.349274 431.677887,270.181519 431.703461,269.008575 
	C432.090424,251.264709 432.554779,233.521851 432.794434,215.775955 
	C432.858032,211.069473 426.675751,205.670959 422.395355,206.156204 
	C419.678192,206.464233 414.306854,213.194763 414.300171,216.461594 
	C414.263458,234.392319 415.000458,252.298401 416.296906,271.012054 
M358.627533,272.706635 
	C368.757111,272.622131 367.514099,273.413971 367.737152,263.513519 
	C367.987549,252.399216 367.821686,241.289551 368.481232,230.160522 
	C368.911987,222.892670 371.468719,214.897202 364.347900,208.384735 
	C361.470367,205.753052 357.803619,205.275299 356.652344,206.730896 
	C354.123749,209.927948 349.787323,212.013931 350.059357,217.531418 
	C350.868652,233.947769 351.276550,250.395325 351.309967,266.831757 
	C351.320465,271.988556 353.244202,273.305359 358.627533,272.706635 
z"/>
<path fill="#000000" opacity="1.000000" stroke="none" 
	d="
M294.766357,182.550903 
	C320.525848,173.357101 345.945526,164.333664 371.302032,155.136292 
	C374.350250,154.030624 376.940521,154.075974 379.934692,155.163452 
	C405.283661,164.370209 430.660736,173.500565 456.077148,182.519272 
	C459.656342,183.789307 461.451141,185.030090 459.704987,189.292267 
	C456.722961,196.571060 456.954926,196.697311 451.399109,194.702316 
	C428.366119,186.431564 405.308197,178.228119 382.336700,169.789764 
	C377.679901,168.079147 373.460175,167.993195 368.810486,169.699936 
	C345.682129,178.189606 322.474762,186.463745 299.326263,194.899063 
	C296.354523,195.981979 294.055115,196.611526 292.505676,192.819809 
	C289.801666,186.202728 289.915497,184.914093 294.766357,182.550903 
z"/>
<path fill="#000000" opacity="1.000000" stroke="none" 
	d="
M412.000000,309.018127 
	C372.172546,309.009857 332.845032,309.015747 293.517639,308.963470 
	C290.675537,308.959717 287.074097,309.771881 287.048218,304.981659 
	C287.035614,302.648499 287.918549,301.114563 290.465118,301.001190 
	C291.296906,300.964111 292.130096,300.941254 292.962646,300.941101 
	C348.121063,300.932404 403.279449,300.922638 458.437866,300.935059 
	C460.706116,300.935577 463.390137,300.440155 464.040497,303.678497 
	C464.858337,307.750885 462.712158,308.993622 458.992706,308.979065 
	C446.328308,308.929535 433.663483,308.994537 420.998810,309.014313 
	C418.165863,309.018738 415.332947,309.016968 412.000000,309.018127 
z"/>
<path fill="#000000" opacity="1.000000" stroke="none" 
	d="
M414.000000,290.016602 
	C427.494690,290.015503 440.489380,290.023285 453.484070,290.008179 
	C456.532379,290.004608 459.221863,290.223969 459.183868,294.387390 
	C459.146790,298.452301 456.407990,298.248199 453.663361,298.248169 
	C401.684570,298.247528 349.705811,298.254272 297.727020,298.242188 
	C294.932861,298.241547 291.781067,298.776306 291.764771,294.316772 
	C291.747681,289.643524 295.076538,290.049377 298.047119,290.046997 
	C336.531403,290.016144 375.015717,290.021118 414.000000,290.016602 
z"/>
</svg>