<svg version="1.1" id="Layer_1" xmlns="http://www.w3.org/2000/svg" xmlns:xlink="http://www.w3.org/1999/xlink" x="0px" y="0px"
	 width="100%" viewBox="0 0 466 457" enable-background="new 0 0 466 457" xml:space="preserve">
<path fill="#99102F" opacity="1.000000" stroke="none" 
	d="
M466.000000,458.000000 
	C311.072052,458.000000 156.144104,458.000000 1.000000,458.000000 
	C1.000000,306.309326 1.000000,154.618546 1.468657,2.463420 
	C154.091614,1.998920 306.245911,1.998626 458.400208,1.999030 
	C465.997711,1.999050 466.000793,2.001863 466.000793,9.536490 
	C466.001007,159.024323 466.000397,308.512177 466.000000,458.000000 
M216.045639,323.930145 
	C216.045639,323.930145 216.068878,323.860199 215.771606,323.159576 
	C208.819168,322.714722 205.084427,319.659302 206.827347,312.147583 
	C206.861877,311.998749 206.812134,311.809021 206.747864,311.661865 
	C205.525970,308.863831 204.043045,307.901428 201.528030,311.551971 
	C199.899719,317.171143 199.090790,323.366913 190.879242,324.353668 
	C191.204666,324.767487 191.530075,325.181274 191.855499,325.595093 
	C193.180038,325.862762 194.504593,326.130463 196.221008,327.048218 
	C196.585510,327.395111 196.950027,327.742004 197.583298,328.981628 
	C197.585373,339.939636 197.587433,350.897644 197.106567,362.192169 
	C197.317398,362.728882 197.528229,363.265564 198.040436,364.370880 
	C201.028107,370.089752 205.648315,371.889679 213.200363,369.984222 
	C214.719116,369.601044 216.024551,368.372375 217.428345,367.533508 
	C217.152679,367.132721 216.877014,366.731903 216.601349,366.331116 
	C208.880127,368.330566 207.663757,367.953857 206.344543,362.319519 
	C206.506622,352.394623 206.763870,342.469849 206.777679,332.544769 
	C206.782318,329.199738 207.856506,327.713959 211.367783,327.742218 
	C212.908112,327.754639 214.457672,326.619202 216.018204,325.999359 
	C216.018204,325.999359 216.026688,326.015076 216.542480,325.920654 
	C216.401108,325.261139 216.259750,324.601593 216.045639,323.930145 
M227.355087,328.936279 
	C227.451828,340.250153 227.548569,351.563995 227.320175,363.086365 
	C227.455841,363.326813 227.591507,363.567291 228.021591,364.382202 
	C230.981674,370.110504 235.594604,371.914368 243.179947,370.015594 
	C244.712891,369.631866 246.034195,368.402740 247.453079,367.563354 
	C247.178665,367.277618 246.904236,366.991852 246.629822,366.706116 
	C243.767578,366.706116 240.905334,366.706116 237.986252,366.090576 
	C237.351608,365.389435 236.716965,364.688293 235.837875,363.370605 
	C235.830872,362.931641 235.823868,362.492645 236.326187,361.389282 
	C236.523178,351.804565 236.822220,342.220306 236.861282,332.634949 
	C236.874741,329.327148 237.827484,327.756287 241.395203,327.811249 
	C242.928665,327.834900 244.480286,326.678772 246.163361,325.249634 
	C243.104645,324.594513 240.045944,323.939362 236.990997,322.425903 
	C236.594345,320.593842 236.197693,318.761749 235.591599,316.134491 
	C235.591599,314.268402 235.591599,312.402344 235.591599,309.711823 
	C233.558151,310.860474 231.486954,311.352478 231.293076,312.250031 
	C230.040543,318.048462 228.015381,323.095581 220.951385,324.630310 
	C221.231598,324.990631 221.511795,325.350952 221.792007,325.711273 
	C223.142731,325.945007 224.493469,326.178741 226.174362,327.024231 
	C226.490341,327.358551 226.806320,327.692902 227.355087,328.936279 
M64.459793,354.726074 
	C64.434616,355.444214 64.409439,356.162384 64.101852,357.182159 
	C64.243675,357.508118 64.385506,357.834076 64.812843,358.790649 
	C65.222321,363.829529 67.322632,367.978119 72.229950,369.677582 
	C80.774681,372.636749 87.714760,369.428650 93.728592,362.299011 
	C94.013870,365.358429 94.220467,367.574005 94.386772,369.357483 
	C99.146721,369.357483 103.537636,369.357483 107.928558,369.357483 
	C108.120338,368.952484 108.312119,368.547516 108.503899,368.142517 
	C101.688469,367.621582 101.808487,363.026611 101.822968,358.412109 
	C101.859871,346.650909 101.835243,334.889496 101.835243,322.682892 
	C97.079613,322.974030 92.518288,323.253296 87.956955,323.532532 
	C87.710419,324.081451 87.463875,324.630371 87.217331,325.179291 
	C95.009293,325.305969 93.998726,330.504974 94.010406,335.065063 
	C94.024475,340.556274 94.684692,346.180817 93.707497,351.498138 
	C92.882950,355.984802 91.038437,360.969421 88.017265,364.220825 
	C82.166245,370.517670 74.287041,367.627747 72.666779,359.220337 
	C72.354431,357.599579 72.213188,355.922180 72.206772,354.270050 
	C72.166344,343.870056 72.186287,333.469788 72.186287,322.606903 
	C67.524422,323.008087 63.058392,323.392426 58.592361,323.776764 
	C58.502018,324.279724 58.411678,324.782654 58.321335,325.285614 
	C62.630123,325.702332 65.180443,327.454742 63.552235,332.620911 
	C63.758404,339.765259 63.964577,346.909576 64.459793,354.726074 
M315.698853,105.224510 
	C312.054565,104.815506 308.400543,104.010384 304.768463,104.099457 
	C300.394440,104.206734 297.233032,103.744110 297.820618,98.209007 
	C297.898743,97.473129 296.870148,96.619766 295.766083,95.367470 
	C290.611237,95.290390 285.437073,95.446381 280.310974,95.021957 
	C278.249603,94.851288 275.481232,93.977554 274.413025,92.456062 
	C260.989624,73.336571 235.295609,70.245438 215.753464,76.286636 
	C207.288025,78.903618 200.163528,83.867783 194.874283,91.043037 
	C192.673691,94.028290 190.012329,95.161537 186.537537,95.142487 
	C181.746185,95.116219 176.954575,95.135895 171.705078,95.135895 
	C171.705078,98.841728 171.705078,102.117989 171.705078,105.988266 
	C164.869019,105.988266 158.470581,105.988266 152.131927,105.988266 
	C152.131927,158.336868 152.131927,210.084610 152.131927,261.972168 
	C206.824478,261.972168 261.269745,261.972168 315.805328,261.972168 
	C315.923492,261.161987 316.101074,260.513428 316.100830,259.864960 
	C316.081635,208.557281 316.048523,157.249588 315.698853,105.224510 
M176.134171,361.631287 
	C185.152771,350.872559 186.542007,338.490204 183.344818,325.401184 
	C179.619553,310.150238 168.282684,301.788422 152.687637,302.243896 
	C137.817566,302.678192 126.785225,312.160156 124.040459,327.312958 
	C123.247627,331.689911 122.885284,336.300812 123.303780,340.711639 
	C124.510216,353.426941 129.532852,364.282196 142.350967,368.747711 
	C154.346848,372.926788 166.040665,371.869476 176.134171,361.631287 
M351.405853,342.759796 
	C349.740753,348.340149 348.075623,353.920502 346.006500,360.854797 
	C345.260406,358.597473 345.004883,357.855560 344.769409,357.107330 
	C341.724945,347.433746 338.745819,337.738586 335.566742,328.109497 
	C335.139496,326.815338 333.707794,325.852814 332.741211,324.736725 
	C331.712158,325.762817 330.372803,326.626099 329.728577,327.854034 
	C328.814850,329.595581 328.417908,331.607269 327.792023,333.500824 
	C324.893921,342.268524 321.993011,351.035309 318.705322,360.974731 
	C315.901367,351.231415 313.448975,342.815521 311.061829,334.381134 
	C309.146698,327.614502 309.183838,327.610168 315.651215,325.302979 
	C315.818298,325.243378 315.818085,324.714966 315.922241,324.300232 
	C309.159790,324.300232 302.456665,324.300232 295.753540,324.300232 
	C300.703766,325.969696 301.931732,329.783234 303.123474,333.918640 
	C306.571808,345.884888 310.241455,357.787384 313.761139,369.504761 
	C317.480713,370.839264 319.148895,369.650208 320.183258,366.172089 
	C322.456482,358.528198 325.143158,351.006836 327.684082,343.443176 
	C328.420898,341.249878 329.235565,339.082703 330.380981,335.878571 
	C334.045685,347.063904 337.219391,357.039093 340.666626,366.918823 
	C341.113373,368.199188 342.886017,369.599365 344.208344,369.786560 
	C345.086884,369.910919 346.793518,368.156982 347.209473,366.931488 
	C349.880890,359.061310 352.061401,351.019867 354.869446,343.202148 
	C357.360535,336.266937 356.795746,327.360687 366.036011,324.312378 
	C360.164886,324.312378 354.293762,324.312378 348.422638,324.312378 
	C355.833435,327.861481 355.829834,327.860413 353.494110,335.779510 
	C352.882599,337.852722 352.301025,339.934753 351.405853,342.759796 
M290.091339,370.190002 
	C292.099457,369.836761 294.107574,369.483490 296.115692,369.130219 
	C290.240021,366.226227 290.067963,366.129883 290.054291,359.771576 
	C290.038177,352.286469 290.300354,344.801025 290.310272,337.315552 
	C290.325439,325.869141 285.882782,321.680695 274.378754,322.235077 
	C272.225647,322.338867 269.804047,322.214630 268.001648,323.150024 
	C264.149933,325.148987 260.399811,327.509277 257.097260,330.300415 
	C256.101227,331.142242 256.021881,334.310059 256.818512,335.630676 
	C257.432861,336.649109 260.272400,337.068268 261.753571,336.596130 
	C263.042084,336.185425 264.382904,334.282410 264.715027,332.815643 
	C266.124817,326.590210 268.789124,324.382446 275.124542,324.815460 
	C280.211395,325.163177 282.371368,327.733673 282.676666,334.019226 
	C282.802094,336.601379 282.697479,339.194763 282.697479,341.894348 
	C281.221436,342.035034 280.394226,342.036102 279.601410,342.201752 
	C273.282166,343.522278 266.741974,344.238037 260.718048,346.392975 
	C254.551514,348.598969 252.021896,354.924530 253.448395,361.154114 
	C254.874130,367.380402 258.770416,370.177460 265.736298,370.628540 
	C272.368652,371.058075 277.449036,367.865234 282.982697,363.351166 
	C282.497314,368.842743 284.463257,371.173096 290.091339,370.190002 
M382.472412,322.857697 
	C377.532776,323.706635 373.076965,325.575256 370.549957,330.121429 
	C369.715118,331.623291 369.441864,334.221893 370.214264,335.576294 
	C370.798462,336.600708 373.635559,337.064941 375.129517,336.624268 
	C376.399994,336.249451 377.750580,334.357391 378.085938,332.909668 
	C379.570129,326.502502 382.462891,324.210510 388.992371,324.837097 
	C393.908691,325.308899 395.901581,327.985657 396.057587,334.431458 
	C396.116577,336.870361 396.067169,339.311920 396.067169,341.856110 
	C394.697357,342.002960 393.875275,342.016205 393.087494,342.187317 
	C386.622772,343.591339 379.910736,344.346344 373.775696,346.640564 
	C367.667877,348.924591 365.491791,355.147705 367.035126,361.652100 
	C368.403412,367.418762 372.499084,371.082336 379.196472,370.358978 
	C384.968292,369.735596 390.535828,367.221405 396.204712,365.539917 
	C397.614319,370.767120 404.324219,372.715485 409.584259,367.723511 
	C403.364288,367.933136 403.498505,363.710724 403.527252,359.703613 
	C403.578613,352.551483 403.817657,345.400726 403.873657,338.248596 
	C403.971863,325.710175 399.252045,321.340942 386.783051,322.323608 
	C385.623016,322.415009 384.469940,322.594910 382.472412,322.857697 
z"/>
<path fill="#AD3E57" opacity="1.000000" stroke="none" 
	d="
M466.500000,458.000000 
	C466.000397,308.512177 466.001007,159.024323 466.000793,9.536490 
	C466.000793,2.001863 465.997711,1.999050 458.400208,1.999030 
	C306.245911,1.998626 154.091614,1.998920 1.468657,1.999536 
	C2.333333,1.666667 3.666232,1.044199 5.000063,1.042194 
	C40.333317,0.989085 75.666664,1.000000 110.999992,1.000000 
	C229.666656,1.000000 348.333313,1.000000 467.000000,1.000000 
	C467.000000,153.333328 467.000000,305.666656 466.500000,458.000000 
z"/>
<path fill="#FBF6F7" opacity="1.000000" stroke="none" 
	d="
M316.016449,105.941910 
	C316.048523,157.249588 316.081635,208.557281 316.100830,259.864960 
	C316.101074,260.513428 315.923492,261.161987 315.805328,261.972168 
	C261.269745,261.972168 206.824478,261.972168 152.131927,261.972168 
	C152.131927,210.084610 152.131927,158.336868 152.131927,105.988266 
	C158.470581,105.988266 164.869019,105.988266 171.705078,105.988266 
	C171.705078,102.117989 171.705078,98.841728 171.705078,95.135895 
	C176.954575,95.135895 181.746185,95.116219 186.537537,95.142487 
	C190.012329,95.161537 192.673691,94.028290 194.874283,91.043037 
	C200.163528,83.867783 207.288025,78.903618 215.753464,76.286636 
	C235.295609,70.245438 260.989624,73.336571 274.413025,92.456062 
	C275.481232,93.977554 278.249603,94.851288 280.310974,95.021957 
	C285.437073,95.446381 290.611237,95.290390 296.007477,96.075447 
	C296.248871,99.697441 296.248871,102.611458 296.248871,105.941910 
	C303.206543,105.941910 309.611481,105.941910 316.016449,105.941910 
M305.686920,253.168686 
	C306.123657,252.779266 306.560364,252.389832 307.200073,251.082123 
	C307.200073,205.697464 307.200073,160.312790 307.200073,114.513832 
	C300.197083,114.513832 293.939941,114.513832 287.177155,114.513832 
	C287.177155,110.871017 287.177155,107.629807 287.177155,104.065750 
	C282.527832,104.065750 278.362823,104.345139 274.266785,103.935478 
	C272.497467,103.758522 270.037292,102.582123 269.302887,101.140457 
	C256.597321,76.199257 211.850723,75.885292 198.698547,101.036972 
	C197.898010,102.567863 195.217957,103.723747 193.291199,103.931900 
	C189.227539,104.370895 185.083435,104.065445 180.490356,104.065445 
	C180.490356,107.924194 180.490356,111.177567 180.490356,114.827667 
	C173.744324,114.827667 167.482193,114.827667 160.762085,114.827667 
	C160.762085,117.007553 160.762070,118.798660 160.762070,120.589767 
	C160.762100,159.236832 160.753174,197.883911 160.772797,236.530975 
	C160.775421,241.687485 160.922668,246.843918 161.036377,252.708328 
	C161.692429,252.809097 162.348495,252.909882 163.920349,253.222748 
	C209.291885,253.234207 254.663406,253.248276 300.034943,253.246658 
	C301.688660,253.246597 303.342407,253.092804 305.686920,253.168686 
z"/>
<path fill="#FAF3F5" opacity="1.000000" stroke="none" 
	d="
M175.886871,361.887207 
	C166.040665,371.869476 154.346848,372.926788 142.350967,368.747711 
	C129.532852,364.282196 124.510216,353.426941 123.303780,340.711639 
	C122.885284,336.300812 123.247627,331.689911 124.040459,327.312958 
	C126.785225,312.160156 137.817566,302.678192 152.687637,302.243896 
	C168.282684,301.788422 179.619553,310.150238 183.344818,325.401184 
	C186.542007,338.490204 185.152771,350.872559 175.886871,361.887207 
M171.936676,317.829376 
	C168.263550,309.398560 162.203964,304.448090 152.635635,305.024078 
	C143.221954,305.590759 138.023453,311.516083 135.196136,319.795471 
	C131.370865,330.997253 131.380753,342.346527 135.266464,353.536224 
	C138.649109,363.277191 145.000793,368.077850 153.837799,368.107910 
	C162.704956,368.138062 169.180725,363.397675 172.525116,353.706451 
	C176.558029,342.020111 176.464142,330.237274 171.936676,317.829376 
z"/>
<path fill="#FAF3F4" opacity="1.000000" stroke="none" 
	d="
M351.555786,342.386261 
	C352.301025,339.934753 352.882599,337.852722 353.494110,335.779510 
	C355.829834,327.860413 355.833435,327.861481 348.422638,324.312378 
	C354.293762,324.312378 360.164886,324.312378 366.036011,324.312378 
	C356.795746,327.360687 357.360535,336.266937 354.869446,343.202148 
	C352.061401,351.019867 349.880890,359.061310 347.209473,366.931488 
	C346.793518,368.156982 345.086884,369.910919 344.208344,369.786560 
	C342.886017,369.599365 341.113373,368.199188 340.666626,366.918823 
	C337.219391,357.039093 334.045685,347.063904 330.380981,335.878571 
	C329.235565,339.082703 328.420898,341.249878 327.684082,343.443176 
	C325.143158,351.006836 322.456482,358.528198 320.183258,366.172089 
	C319.148895,369.650208 317.480713,370.839264 313.761139,369.504761 
	C310.241455,357.787384 306.571808,345.884888 303.123474,333.918640 
	C301.931732,329.783234 300.703766,325.969696 295.753540,324.300232 
	C302.456665,324.300232 309.159790,324.300232 315.922241,324.300232 
	C315.818085,324.714966 315.818298,325.243378 315.651215,325.302979 
	C309.183838,327.610168 309.146698,327.614502 311.061829,334.381134 
	C313.448975,342.815521 315.901367,351.231415 318.705322,360.974731 
	C321.993011,351.035309 324.893921,342.268524 327.792023,333.500824 
	C328.417908,331.607269 328.814850,329.595581 329.728577,327.854034 
	C330.372803,326.626099 331.712158,325.762817 332.741211,324.736725 
	C333.707794,325.852814 335.139496,326.815338 335.566742,328.109497 
	C338.745819,337.738586 341.724945,347.433746 344.769409,357.107330 
	C345.004883,357.855560 345.260406,358.597473 346.006500,360.854797 
	C348.075623,353.920502 349.740753,348.340149 351.555786,342.386261 
z"/>
<path fill="#FAF4F6" opacity="1.000000" stroke="none" 
	d="
M64.384262,356.880524 
	C64.409439,356.162384 64.434616,355.444214 64.423508,353.928375 
	C64.286491,346.079285 64.185768,339.027863 64.085037,331.976471 
	C65.180443,327.454742 62.630123,325.702332 58.321335,325.285614 
	C58.411678,324.782654 58.502018,324.279724 58.592361,323.776764 
	C63.058392,323.392426 67.524422,323.008087 72.186287,322.606903 
	C72.186287,333.469788 72.166344,343.870056 72.206772,354.270050 
	C72.213188,355.922180 72.354431,357.599579 72.666779,359.220337 
	C74.287041,367.627747 82.166245,370.517670 88.017265,364.220825 
	C91.038437,360.969421 92.882950,355.984802 93.707497,351.498138 
	C94.684692,346.180817 94.024475,340.556274 94.010406,335.065063 
	C93.998726,330.504974 95.009293,325.305969 87.217331,325.179291 
	C87.463875,324.630371 87.710419,324.081451 87.956955,323.532532 
	C92.518288,323.253296 97.079613,322.974030 101.835243,322.682892 
	C101.835243,334.889496 101.859871,346.650909 101.822968,358.412109 
	C101.808487,363.026611 101.688469,367.621582 108.503899,368.142517 
	C108.312119,368.547516 108.120338,368.952484 107.928558,369.357483 
	C103.537636,369.357483 99.146721,369.357483 94.386772,369.357483 
	C94.220467,367.574005 94.013870,365.358429 93.728592,362.299011 
	C87.714760,369.428650 80.774681,372.636749 72.229950,369.677582 
	C67.322632,367.978119 65.222321,363.829529 64.701843,358.147797 
	C64.521980,357.296783 64.453117,357.088654 64.384262,356.880524 
z"/>
<path fill="#F9F1F3" opacity="1.000000" stroke="none" 
	d="
M289.688049,370.207428 
	C284.463257,371.173096 282.497314,368.842743 282.982697,363.351166 
	C277.449036,367.865234 272.368652,371.058075 265.736298,370.628540 
	C258.770416,370.177460 254.874130,367.380402 253.448395,361.154114 
	C252.021896,354.924530 254.551514,348.598969 260.718048,346.392975 
	C266.741974,344.238037 273.282166,343.522278 279.601410,342.201752 
	C280.394226,342.036102 281.221436,342.035034 282.697479,341.894348 
	C282.697479,339.194763 282.802094,336.601379 282.676666,334.019226 
	C282.371368,327.733673 280.211395,325.163177 275.124542,324.815460 
	C268.789124,324.382446 266.124817,326.590210 264.715027,332.815643 
	C264.382904,334.282410 263.042084,336.185425 261.753571,336.596130 
	C260.272400,337.068268 257.432861,336.649109 256.818512,335.630676 
	C256.021881,334.310059 256.101227,331.142242 257.097260,330.300415 
	C260.399811,327.509277 264.149933,325.148987 268.001648,323.150024 
	C269.804047,322.214630 272.225647,322.338867 274.378754,322.235077 
	C285.882782,321.680695 290.325439,325.869141 290.310272,337.315552 
	C290.300354,344.801025 290.038177,352.286469 290.054291,359.771576 
	C290.067963,366.129883 290.240021,366.226227 296.115692,369.130219 
	C294.107574,369.483490 292.099457,369.836761 289.688049,370.207428 
M263.860107,350.619690 
	C260.323517,357.052185 261.217010,364.070984 265.887634,366.546906 
	C270.258331,368.863831 278.490143,366.031708 280.523041,360.482330 
	C282.308319,355.608856 282.436768,350.128448 283.385376,344.380737 
	C275.635132,345.070343 269.344238,345.395935 263.860107,350.619690 
z"/>
<path fill="#F9F1F3" opacity="1.000000" stroke="none" 
	d="
M382.893005,322.795715 
	C384.469940,322.594910 385.623016,322.415009 386.783051,322.323608 
	C399.252045,321.340942 403.971863,325.710175 403.873657,338.248596 
	C403.817657,345.400726 403.578613,352.551483 403.527252,359.703613 
	C403.498505,363.710724 403.364288,367.933136 409.584259,367.723511 
	C404.324219,372.715485 397.614319,370.767120 396.204712,365.539917 
	C390.535828,367.221405 384.968292,369.735596 379.196472,370.358978 
	C372.499084,371.082336 368.403412,367.418762 367.035126,361.652100 
	C365.491791,355.147705 367.667877,348.924591 373.775696,346.640564 
	C379.910736,344.346344 386.622772,343.591339 393.087494,342.187317 
	C393.875275,342.016205 394.697357,342.002960 396.067169,341.856110 
	C396.067169,339.311920 396.116577,336.870361 396.057587,334.431458 
	C395.901581,327.985657 393.908691,325.308899 388.992371,324.837097 
	C382.462891,324.210510 379.570129,326.502502 378.085938,332.909668 
	C377.750580,334.357391 376.399994,336.249451 375.129517,336.624268 
	C373.635559,337.064941 370.798462,336.600708 370.214264,335.576294 
	C369.441864,334.221893 369.715118,331.623291 370.549957,330.121429 
	C373.076965,325.575256 377.532776,323.706635 382.893005,322.795715 
M377.633240,350.237671 
	C373.791626,356.495575 374.343933,363.393524 378.917603,366.278046 
	C382.827759,368.744171 389.941986,366.591583 393.336273,361.785309 
	C394.175476,360.596985 394.972809,359.164673 395.150513,357.763458 
	C395.699738,353.433746 395.940552,349.064911 396.301147,344.711273 
	C395.837463,344.232666 395.373779,343.754059 394.910065,343.275482 
	C389.324707,345.411621 383.739349,347.547760 377.633240,350.237671 
z"/>
<path fill="#F9F1F3" opacity="1.000000" stroke="none" 
	d="
M227.645294,362.877869 
	C227.548569,351.563995 227.451828,340.250153 227.257599,328.054016 
	C226.721481,326.918640 226.282852,326.665558 225.844208,326.412476 
	C224.493469,326.178741 223.142731,325.945007 221.792007,325.711273 
	C221.511795,325.350952 221.231598,324.990631 220.951385,324.630310 
	C228.015381,323.095581 230.040543,318.048462 231.293076,312.250031 
	C231.486954,311.352478 233.558151,310.860474 235.591599,309.711823 
	C235.591599,312.402344 235.591599,314.268402 235.546051,316.874512 
	C235.996078,319.504456 236.491653,321.394318 236.987228,323.284210 
	C240.045944,323.939362 243.104645,324.594513 245.634735,325.680939 
	C241.892776,326.112244 238.679459,326.112244 235.816864,326.112244 
	C235.816864,338.663483 235.816864,350.358582 235.816864,362.053680 
	C235.823868,362.492645 235.830872,362.931641 235.945023,363.982788 
	C236.715820,365.298676 237.379456,366.002380 238.043091,366.706116 
	C240.905334,366.706116 243.767578,366.706116 246.629822,366.706116 
	C246.904236,366.991852 247.178665,367.277618 247.453079,367.563354 
	C246.034195,368.402740 244.712891,369.631866 243.179947,370.015594 
	C235.594604,371.914368 230.981674,370.110504 227.914764,363.857147 
	C227.807953,363.332092 227.645294,362.877869 227.645294,362.877869 
z"/>
<path fill="#FCF8F9" opacity="1.000000" stroke="none" 
	d="
M205.914124,363.021332 
	C207.663757,367.953857 208.880127,368.330566 216.601349,366.331116 
	C216.877014,366.731903 217.152679,367.132721 217.428345,367.533508 
	C216.024551,368.372375 214.719116,369.601044 213.200363,369.984222 
	C205.648315,371.889679 201.028107,370.089752 197.934326,363.759338 
	C197.748657,362.717102 197.669083,362.286377 197.589508,361.855652 
	C197.587433,350.897644 197.585373,339.939636 197.461304,328.068665 
	C196.835938,326.903198 196.332535,326.650665 195.829147,326.398132 
	C194.504593,326.130463 193.180038,325.862762 191.855499,325.595093 
	C191.530075,325.181274 191.204666,324.767487 190.879242,324.353668 
	C199.090790,323.366913 199.899719,317.171143 202.242966,311.263489 
	C203.787949,311.901398 205.237839,312.768219 205.333725,313.765228 
	C205.641281,316.963501 205.448044,320.209930 205.448044,323.860199 
	C209.470535,323.860199 212.769714,323.860199 216.068878,323.860199 
	C216.068878,323.860199 216.045639,323.930145 216.072601,324.281982 
	C216.075256,325.094208 216.050980,325.554657 216.026688,326.015076 
	C216.026688,326.015076 216.018204,325.999359 215.553284,326.027649 
	C212.001678,326.055939 208.915009,326.055939 205.914124,326.055939 
	C205.914124,338.744781 205.914124,350.883057 205.914124,363.021332 
z"/>
<path fill="#A8364F" opacity="1.000000" stroke="none" 
	d="
M206.129333,362.670410 
	C205.914124,350.883057 205.914124,338.744781 205.914124,326.055939 
	C208.915009,326.055939 212.001678,326.055939 215.545700,326.030457 
	C214.457672,326.619202 212.908112,327.754639 211.367783,327.742218 
	C207.856506,327.713959 206.782318,329.199738 206.777679,332.544769 
	C206.763870,342.469849 206.506622,352.394623 206.129333,362.670410 
z"/>
<path fill="#A42A46" opacity="1.000000" stroke="none" 
	d="
M236.071533,361.721497 
	C235.816864,350.358582 235.816864,338.663483 235.816864,326.112244 
	C238.679459,326.112244 241.892776,326.112244 245.564880,326.085419 
	C244.480286,326.678772 242.928665,327.834900 241.395203,327.811249 
	C237.827484,327.756287 236.874741,329.327148 236.861282,332.634949 
	C236.822220,342.220306 236.523178,351.804565 236.071533,361.721497 
z"/>
<path fill="#A42A46" opacity="1.000000" stroke="none" 
	d="
M215.920242,323.509888 
	C212.769714,323.860199 209.470535,323.860199 205.448044,323.860199 
	C205.448044,320.209930 205.641281,316.963501 205.333725,313.765228 
	C205.237839,312.768219 203.787949,311.901398 202.479263,310.989441 
	C204.043045,307.901428 205.525970,308.863831 206.747864,311.661865 
	C206.812134,311.809021 206.861877,311.998749 206.827347,312.147583 
	C205.084427,319.659302 208.819168,322.714722 215.920242,323.509888 
z"/>
<path fill="#940425" opacity="1.000000" stroke="none" 
	d="
M315.857666,105.583206 
	C309.611481,105.941910 303.206543,105.941910 296.248871,105.941910 
	C296.248871,102.611458 296.248871,99.697441 296.301453,96.302124 
	C296.870148,96.619766 297.898743,97.473129 297.820618,98.209007 
	C297.233032,103.744110 300.394440,104.206734 304.768463,104.099457 
	C308.400543,104.010384 312.054565,104.815506 315.857666,105.583206 
z"/>
<path fill="#8F001C" opacity="1.000000" stroke="none" 
	d="
M63.818634,332.298706 
	C64.185768,339.027863 64.286491,346.079285 64.278984,353.592285 
	C63.964577,346.909576 63.758404,339.765259 63.818634,332.298706 
z"/>
<path fill="#9A1231" opacity="1.000000" stroke="none" 
	d="
M236.989105,322.855042 
	C236.491653,321.394318 235.996078,319.504456 235.650772,317.272125 
	C236.197693,318.761749 236.594345,320.593842 236.989105,322.855042 
z"/>
<path fill="#A42A46" opacity="1.000000" stroke="none" 
	d="
M238.014679,366.398346 
	C237.379456,366.002380 236.715820,365.298676 236.067245,364.291046 
	C236.716965,364.688293 237.351608,365.389435 238.014679,366.398346 
z"/>
<path fill="#A42A46" opacity="1.000000" stroke="none" 
	d="
M216.284576,325.967865 
	C216.050980,325.554657 216.075256,325.094208 216.108963,324.287933 
	C216.259750,324.601593 216.401108,325.261139 216.284576,325.967865 
z"/>
<path fill="#940425" opacity="1.000000" stroke="none" 
	d="
M197.348038,362.023926 
	C197.669083,362.286377 197.748657,362.717102 197.783661,363.475037 
	C197.528229,363.265564 197.317398,362.728882 197.348038,362.023926 
z"/>
<path fill="#940425" opacity="1.000000" stroke="none" 
	d="
M196.025085,326.723175 
	C196.332535,326.650665 196.835938,326.903198 197.326935,327.622314 
	C196.950027,327.742004 196.585510,327.395111 196.025085,326.723175 
z"/>
<path fill="#940425" opacity="1.000000" stroke="none" 
	d="
M226.009277,326.718353 
	C226.282852,326.665558 226.721481,326.918640 227.141205,327.599487 
	C226.806320,327.692902 226.490341,327.358551 226.009277,326.718353 
z"/>
<path fill="#8F001C" opacity="1.000000" stroke="none" 
	d="
M64.243057,357.031342 
	C64.453117,357.088654 64.521980,357.296783 64.559090,357.832489 
	C64.385506,357.834076 64.243675,357.508118 64.243057,357.031342 
z"/>
<path fill="#940425" opacity="1.000000" stroke="none" 
	d="
M227.482727,362.982117 
	C227.645294,362.877869 227.807953,363.332092 227.767548,363.569916 
	C227.591507,363.567291 227.455841,363.326813 227.482727,362.982117 
z"/>
<path fill="#9A1231" opacity="1.000000" stroke="none" 
	d="
M161.002930,252.000397 
	C160.922668,246.843918 160.775421,241.687485 160.772797,236.530975 
	C160.753174,197.883911 160.762100,159.236832 160.762070,120.589767 
	C160.762070,118.798660 160.762085,117.007553 160.762085,114.827667 
	C167.482193,114.827667 173.744324,114.827667 180.490356,114.827667 
	C180.490356,111.177567 180.490356,107.924194 180.490356,104.065445 
	C185.083435,104.065445 189.227539,104.370895 193.291199,103.931900 
	C195.217957,103.723747 197.898010,102.567863 198.698547,101.036972 
	C211.850723,75.885292 256.597321,76.199257 269.302887,101.140457 
	C270.037292,102.582123 272.497467,103.758522 274.266785,103.935478 
	C278.362823,104.345139 282.527832,104.065750 287.177155,104.065750 
	C287.177155,107.629807 287.177155,110.871017 287.177155,114.513832 
	C293.939941,114.513832 300.197083,114.513832 307.200073,114.513832 
	C307.200073,160.312790 307.200073,205.697464 306.809814,251.581009 
	C305.945068,252.390152 305.470581,252.700409 304.996124,253.010651 
	C303.342407,253.092804 301.688660,253.246597 300.034943,253.246658 
	C254.663406,253.248276 209.291885,253.234207 163.268753,252.900116 
	C162.079086,252.385117 161.541000,252.192764 161.002930,252.000397 
M292.172852,164.689911 
	C292.742615,162.722977 293.312378,160.756042 293.984253,158.436615 
	C253.457520,158.436615 214.056931,158.436615 173.776245,158.436615 
	C174.375046,160.412476 174.658173,162.047714 175.351944,163.484680 
	C176.648819,166.170776 179.390427,168.729752 179.416763,171.362762 
	C179.549774,184.664841 178.944534,197.972794 178.733597,211.280838 
	C178.681320,214.579865 178.131409,217.121124 174.083557,216.839767 
	C174.083557,219.514160 174.083557,221.811722 174.083557,224.306198 
	C214.076309,224.306198 253.898300,224.306198 293.804535,224.306198 
	C293.804535,221.619446 293.804535,219.314987 293.804535,216.869553 
	C292.288727,216.508163 290.884521,216.173386 288.893402,215.698669 
	C288.893402,199.868591 288.893402,184.107529 288.893402,168.346466 
	C289.500031,169.053192 290.106689,169.759933 290.713318,170.466660 
	C291.196259,168.803574 291.679169,167.140488 292.172852,164.689911 
M195.957535,137.530273 
	C186.766586,140.839737 177.575623,144.149185 168.091507,147.564209 
	C169.222687,150.557022 170.193695,153.126068 171.250290,155.921555 
	C186.809418,150.328903 202.290970,145.626083 217.019501,139.197906 
	C228.847702,134.035553 239.336594,134.116394 251.142181,139.276611 
	C265.845398,145.703400 281.313416,150.380447 296.753479,155.921570 
	C297.847229,153.006241 298.811737,150.435410 299.893707,147.551453 
	C278.219086,139.754227 256.977570,132.072754 235.681396,124.545792 
	C234.324249,124.066109 232.437775,124.483856 230.976227,124.995003 
	C219.518982,129.001938 208.105392,133.133682 195.957535,137.530273 
M290.472290,238.215622 
	C249.052368,238.215622 207.632446,238.215622 165.858047,238.215622 
	C165.987030,240.216980 166.077179,241.615829 166.162735,242.943436 
	C211.630768,242.943436 256.699219,242.943436 302.115631,242.943436 
	C301.995880,241.255768 301.897705,239.872360 301.780151,238.215622 
	C298.089478,238.215622 294.775269,238.215622 290.472290,238.215622 
M291.439850,229.878311 
	C251.042542,229.878311 210.645233,229.878311 169.781921,229.878311 
	C169.887833,231.810425 169.969421,233.298477 170.047302,234.719147 
	C212.992096,234.719147 255.367096,234.719147 297.989990,234.719147 
	C297.989990,233.109314 297.989990,231.716293 297.989990,229.878311 
	C296.009949,229.878311 294.215729,229.878311 291.439850,229.878311 
z"/>
<path fill="#8F001C" opacity="1.000000" stroke="none" 
	d="
M305.341522,253.089661 
	C305.470581,252.700409 305.945068,252.390152 306.708313,252.040161 
	C306.560364,252.389832 306.123657,252.779266 305.341522,253.089661 
z"/>
<path fill="#8F001C" opacity="1.000000" stroke="none" 
	d="
M161.019653,252.354370 
	C161.541000,252.192764 162.079086,252.385117 162.810852,252.794067 
	C162.348495,252.909882 161.692429,252.809097 161.019653,252.354370 
z"/>
<path fill="#9A1130" opacity="1.000000" stroke="none" 
	d="
M172.068954,318.194702 
	C176.464142,330.237274 176.558029,342.020111 172.525116,353.706451 
	C169.180725,363.397675 162.704956,368.138062 153.837799,368.107910 
	C145.000793,368.077850 138.649109,363.277191 135.266464,353.536224 
	C131.380753,342.346527 131.370865,330.997253 135.196136,319.795471 
	C138.023453,311.516083 143.221954,305.590759 152.635635,305.024078 
	C162.203964,304.448090 168.263550,309.398560 172.068954,318.194702 
z"/>
<path fill="#9B1432" opacity="1.000000" stroke="none" 
	d="
M264.101196,350.315735 
	C269.344238,345.395935 275.635132,345.070343 283.385376,344.380737 
	C282.436768,350.128448 282.308319,355.608856 280.523041,360.482330 
	C278.490143,366.031708 270.258331,368.863831 265.887634,366.546906 
	C261.217010,364.070984 260.323517,357.052185 264.101196,350.315735 
z"/>
<path fill="#9B1432" opacity="1.000000" stroke="none" 
	d="
M377.893616,349.960785 
	C383.739349,347.547760 389.324707,345.411621 394.910065,343.275482 
	C395.373779,343.754059 395.837463,344.232666 396.301147,344.711273 
	C395.940552,349.064911 395.699738,353.433746 395.150513,357.763458 
	C394.972809,359.164673 394.175476,360.596985 393.336273,361.785309 
	C389.941986,366.591583 382.827759,368.744171 378.917603,366.278046 
	C374.343933,363.393524 373.791626,356.495575 377.893616,349.960785 
z"/>
<path fill="#FAF4F5" opacity="1.000000" stroke="none" 
	d="
M292.167480,165.083664 
	C291.679169,167.140488 291.196259,168.803574 290.713318,170.466660 
	C290.106689,169.759933 289.500031,169.053192 288.893402,168.346466 
	C288.893402,184.107529 288.893402,199.868591 288.893402,215.698669 
	C290.884521,216.173386 292.288727,216.508163 293.804535,216.869553 
	C293.804535,219.314987 293.804535,221.619446 293.804535,224.306198 
	C253.898300,224.306198 214.076309,224.306198 174.083557,224.306198 
	C174.083557,221.811722 174.083557,219.514160 174.083557,216.839767 
	C178.131409,217.121124 178.681320,214.579865 178.733597,211.280838 
	C178.944534,197.972794 179.549774,184.664841 179.416763,171.362762 
	C179.390427,168.729752 176.648819,166.170776 175.351944,163.484680 
	C174.658173,162.047714 174.375046,160.412476 173.776245,158.436615 
	C214.056931,158.436615 253.457520,158.436615 293.984253,158.436615 
	C293.312378,160.756042 292.742615,162.722977 292.167480,165.083664 
M229.052048,184.500153 
	C228.804031,177.218994 231.635071,169.303482 224.371094,163.511078 
	C222.416809,163.511078 220.131531,163.511078 217.846252,163.511078 
	C212.238815,168.154343 213.715149,174.267609 213.897125,180.107864 
	C214.073212,185.759430 214.146561,191.415192 214.188873,197.069672 
	C214.236771,203.469650 214.199905,209.870255 214.199905,216.087128 
	C219.687088,216.087128 223.787018,216.087128 229.052322,216.087128 
	C229.052322,205.704010 229.052322,195.601440 229.052048,184.500153 
M189.110992,189.425476 
	C189.110992,198.322540 189.110992,207.219604 189.110992,216.031525 
	C194.715454,216.031525 198.946518,216.031525 204.030930,216.031525 
	C204.030930,207.070587 204.287598,198.443207 203.960052,189.838074 
	C203.620132,180.908142 207.172684,171.294540 199.533035,163.495224 
	C197.569839,163.495224 195.287720,163.495224 193.005600,163.495224 
	C186.881973,168.341202 189.124420,174.944870 188.993958,180.977432 
	C188.940186,183.464050 189.064285,185.954544 189.110992,189.425476 
M278.606995,198.780823 
	C278.790680,189.980011 279.027985,181.179688 279.105499,172.377945 
	C279.118500,170.902466 278.736084,169.248688 278.003845,167.986115 
	C277.106689,166.439178 275.648926,165.217361 274.039520,163.413284 
	C272.517395,163.413284 270.212524,163.413284 269.156372,163.413284 
	C262.462616,169.114075 263.624451,176.085541 263.824585,182.862473 
	C263.898132,185.352997 263.912659,187.845886 263.915710,190.337753 
	C263.926208,198.900513 263.919769,207.463287 263.919769,216.188141 
	C269.343292,216.188141 273.434540,216.188141 278.580231,216.188141 
	C278.580231,210.597198 278.580231,205.165558 278.606995,198.780823 
M253.356476,205.599365 
	C253.508453,201.108154 254.136139,196.571762 253.714584,192.135040 
	C252.802139,182.531372 258.137146,172.015701 249.415527,163.455444 
	C247.437836,163.455444 245.133530,163.455444 244.071899,163.455444 
	C236.815567,168.519989 238.887817,175.240280 238.851242,181.469666 
	C238.833664,184.465286 239.032669,187.461731 239.042557,190.458084 
	C239.070816,199.030914 239.052505,207.603912 239.052505,216.153076 
	C244.521591,216.153076 248.622864,216.153076 253.346527,216.153076 
	C253.346527,212.822021 253.346527,209.696564 253.356476,205.599365 
z"/>
<path fill="#FCF7F8" opacity="1.000000" stroke="none" 
	d="
M196.317932,137.378616 
	C208.105392,133.133682 219.518982,129.001938 230.976227,124.995003 
	C232.437775,124.483856 234.324249,124.066109 235.681396,124.545792 
	C256.977570,132.072754 278.219086,139.754227 299.893707,147.551453 
	C298.811737,150.435410 297.847229,153.006241 296.753479,155.921570 
	C281.313416,150.380447 265.845398,145.703400 251.142181,139.276611 
	C239.336594,134.116394 228.847702,134.035553 217.019501,139.197906 
	C202.290970,145.626083 186.809418,150.328903 171.250290,155.921555 
	C170.193695,153.126068 169.222687,150.557022 168.091507,147.564209 
	C177.575623,144.149185 186.766586,140.839737 196.317932,137.378616 
z"/>
<path fill="#F8F0F2" opacity="1.000000" stroke="none" 
	d="
M290.966675,238.215622 
	C294.775269,238.215622 298.089478,238.215622 301.780151,238.215622 
	C301.897705,239.872360 301.995880,241.255768 302.115631,242.943436 
	C256.699219,242.943436 211.630768,242.943436 166.162735,242.943436 
	C166.077179,241.615829 165.987030,240.216980 165.858047,238.215622 
	C207.632446,238.215622 249.052368,238.215622 290.966675,238.215622 
z"/>
<path fill="#FCF7F8" opacity="1.000000" stroke="none" 
	d="
M291.930664,229.878311 
	C294.215729,229.878311 296.009949,229.878311 297.989990,229.878311 
	C297.989990,231.716293 297.989990,233.109314 297.989990,234.719147 
	C255.367096,234.719147 212.992096,234.719147 170.047302,234.719147 
	C169.969421,233.298477 169.887833,231.810425 169.781921,229.878311 
	C210.645233,229.878311 251.042542,229.878311 291.930664,229.878311 
z"/>
<path fill="#9B1432" opacity="1.000000" stroke="none" 
	d="
M229.052185,184.999512 
	C229.052322,195.601440 229.052322,205.704010 229.052322,216.087128 
	C223.787018,216.087128 219.687088,216.087128 214.199905,216.087128 
	C214.199905,209.870255 214.236771,203.469650 214.188873,197.069672 
	C214.146561,191.415192 214.073212,185.759430 213.897125,180.107864 
	C213.715149,174.267609 212.238815,168.154343 217.846252,163.511078 
	C220.131531,163.511078 222.416809,163.511078 224.371094,163.511078 
	C231.635071,169.303482 228.804031,177.218994 229.052185,184.999512 
z"/>
<path fill="#9B1432" opacity="1.000000" stroke="none" 
	d="
M189.109222,188.934372 
	C189.064285,185.954544 188.940186,183.464050 188.993958,180.977432 
	C189.124420,174.944870 186.881973,168.341202 193.005600,163.495224 
	C195.287720,163.495224 197.569839,163.495224 199.533035,163.495224 
	C207.172684,171.294540 203.620132,180.908142 203.960052,189.838074 
	C204.287598,198.443207 204.030930,207.070587 204.030930,216.031525 
	C198.946518,216.031525 194.715454,216.031525 189.110992,216.031525 
	C189.110992,207.219604 189.110992,198.322540 189.109222,188.934372 
z"/>
<path fill="#9B1432" opacity="1.000000" stroke="none" 
	d="
M278.593628,199.257385 
	C278.580231,205.165558 278.580231,210.597198 278.580231,216.188141 
	C273.434540,216.188141 269.343292,216.188141 263.919769,216.188141 
	C263.919769,207.463287 263.926208,198.900513 263.915710,190.337753 
	C263.912659,187.845886 263.898132,185.352997 263.824585,182.862473 
	C263.624451,176.085541 262.462616,169.114075 269.156372,163.413284 
	C270.212524,163.413284 272.517395,163.413284 274.039520,163.413284 
	C275.648926,165.217361 277.106689,166.439178 278.003845,167.986115 
	C278.736084,169.248688 279.118500,170.902466 279.105499,172.377945 
	C279.027985,181.179688 278.790680,189.980011 278.593628,199.257385 
z"/>
<path fill="#9B1432" opacity="1.000000" stroke="none" 
	d="
M253.351501,206.085236 
	C253.346527,209.696564 253.346527,212.822021 253.346527,216.153076 
	C248.622864,216.153076 244.521591,216.153076 239.052505,216.153076 
	C239.052505,207.603912 239.070816,199.030914 239.042557,190.458084 
	C239.032669,187.461731 238.833664,184.465286 238.851242,181.469666 
	C238.887817,175.240280 236.815567,168.519989 244.071899,163.455444 
	C245.133530,163.455444 247.437836,163.455444 249.415527,163.455444 
	C258.137146,172.015701 252.802139,182.531372 253.714584,192.135040 
	C254.136139,196.571762 253.508453,201.108154 253.351501,206.085236 
z"/>
</svg>