<svg version="1.1" id="Layer_1" xmlns="http://www.w3.org/2000/svg" xmlns:xlink="http://www.w3.org/1999/xlink" x="0px" y="0px"
	 width="100%" viewBox="0 0 512 512" enable-background="new 0 0 512 512" xml:space="preserve">
<path fill="#F7CD00" opacity="1.000000" stroke="none" 
	d="
M278.000000,513.000000 
	C263.979095,513.000000 249.958206,513.000000 235.271652,512.619873 
	C231.794235,512.140930 228.908905,512.416016 226.183289,511.879517 
	C213.466171,509.376526 200.721939,506.946686 188.122086,503.928497 
	C171.823822,500.024292 156.299515,493.929260 141.592422,485.403259 
	C141.608810,479.444733 141.603683,473.945526 141.614883,468.446381 
	C141.687180,432.954529 141.303299,397.453674 141.998779,361.973969 
	C142.465164,338.181335 161.686295,316.500702 185.205765,313.182373 
	C197.644257,311.427490 210.447235,312.025879 223.087341,311.974640 
	C256.580933,311.838776 290.076050,312.055420 323.569427,311.893402 
	C361.680450,311.709045 390.608643,284.273590 392.156799,246.287979 
	C392.943329,226.989441 392.384003,207.636002 392.431793,188.307388 
	C392.436615,186.357986 392.432434,184.408554 392.432434,182.805664 
	C409.579712,182.805664 426.050751,182.455353 442.490997,183.012878 
	C447.618408,183.186768 452.957947,185.189941 457.692566,187.429367 
	C475.849304,196.017303 486.158051,211.525070 492.928406,229.626480 
	C504.201599,259.766693 505.271484,291.083344 502.885590,322.733643 
	C502.750031,324.531555 502.954285,326.355072 503.000153,328.553711 
	C501.349854,333.283661 499.784515,337.661072 498.032532,341.962433 
	C494.060547,351.714172 490.273407,361.555908 485.874207,371.113922 
	C482.867004,377.647644 479.087372,383.843567 475.408447,390.045380 
	C471.777649,396.166077 467.839172,402.104218 463.668365,408.071716 
	C450.697296,415.283752 436.934448,416.082855 422.780304,416.022278 
	C369.480560,415.794189 316.179291,415.930786 262.878571,415.930786 
	C260.972229,415.930786 259.065887,415.930786 257.235291,415.930786 
	C257.235291,422.358215 257.235291,427.969513 257.235291,434.230347 
	C296.633850,434.230347 335.801941,434.230347 375.351898,434.230347 
	C375.351898,451.532959 375.351898,468.179749 374.976685,484.923615 
	C364.437531,489.326508 354.273590,493.632324 344.025269,497.542175 
	C344.204681,496.039093 344.423187,494.918915 344.739288,493.826965 
	C347.944061,482.756134 342.914368,471.673798 332.714539,467.365753 
	C323.133392,463.319031 311.496399,467.065247 306.105316,475.931915 
	C300.321594,485.444336 302.672394,497.121155 311.769287,504.386322 
	C312.603149,505.052368 313.142029,506.087769 313.415314,506.964874 
	C305.563385,508.319183 298.119415,509.691132 290.662598,510.989258 
	C286.452637,511.722198 282.221558,512.333740 278.000000,513.000000 
z"/>
<path fill="#264D6F" opacity="1.000000" stroke="none" 
	d="
M503.000427,328.166687 
	C502.954285,326.355072 502.750031,324.531555 502.885590,322.733643 
	C505.271484,291.083344 504.201599,259.766693 492.928406,229.626480 
	C486.158051,211.525070 475.849304,196.017303 457.692566,187.429367 
	C452.957947,185.189941 447.618408,183.186768 442.490997,183.012878 
	C426.050751,182.455353 409.579712,182.805664 392.432434,182.805664 
	C392.432434,184.408554 392.436615,186.357986 392.431793,188.307388 
	C392.384003,207.636002 392.943329,226.989441 392.156799,246.287979 
	C390.608643,284.273590 361.680450,311.709045 323.569427,311.893402 
	C290.076050,312.055420 256.580933,311.838776 223.087341,311.974640 
	C210.447235,312.025879 197.644257,311.427490 185.205765,313.182373 
	C161.686295,316.500702 142.465164,338.181335 141.998779,361.973969 
	C141.303299,397.453674 141.687180,432.954529 141.614883,468.446381 
	C141.603683,473.945526 141.608810,479.444733 141.251663,485.427460 
	C122.670677,476.176636 104.919495,465.655029 89.914520,451.277344 
	C79.002594,440.821594 68.699951,429.730011 58.522758,418.923462 
	C63.619320,419.960693 68.287628,421.689758 73.024040,421.902527 
	C87.485641,422.552094 101.977859,422.490082 116.448425,422.988007 
	C120.864441,423.139893 122.186539,421.667511 122.136047,417.288177 
	C121.926666,399.125214 121.958633,380.957672 122.110901,362.793579 
	C122.151161,357.991089 122.554649,353.122620 123.443413,348.407379 
	C129.596939,315.760620 157.067123,293.038971 190.311218,293.003784 
	C233.474747,292.958130 276.638794,293.099518 319.801758,292.935699 
	C348.963776,292.825012 372.932068,268.711182 372.988495,239.647217 
	C373.069733,197.817032 372.933350,155.986282 373.088196,114.156517 
	C373.118652,105.936142 370.244904,99.004593 364.742950,93.412308 
	C360.116577,88.709999 354.976654,84.224991 349.340027,80.854767 
	C325.877625,66.826324 299.705841,61.622246 272.937927,60.310925 
	C255.895767,59.476055 238.645248,60.546371 221.626694,62.193596 
	C201.952713,64.097839 183.107330,69.768730 165.568542,79.227188 
	C148.060593,88.669022 137.512482,101.979530 138.919327,123.229324 
	C139.820114,136.835388 139.077850,150.549545 139.092896,164.215225 
	C139.100159,170.799637 139.209091,170.913300 145.812744,170.915207 
	C179.643661,170.924988 213.474670,170.874893 247.305450,170.943771 
	C259.496826,170.968597 257.807495,169.307343 257.921173,181.517136 
	C257.990723,188.984970 257.929077,188.988251 250.214432,188.988632 
	C193.551819,188.991364 136.889023,188.932861 80.226860,189.094543 
	C74.979889,189.109497 69.572495,189.945770 64.521507,191.388031 
	C46.031834,196.667603 34.607735,209.993774 26.276772,226.428818 
	C15.666977,247.359436 12.052507,270.017975 11.151344,293.102509 
	C10.646008,306.047333 11.618251,319.049866 11.589136,331.823303 
	C11.179721,330.962463 11.153787,330.295258 11.025102,329.648468 
	C8.344328,316.174408 5.646797,302.703674 2.965351,289.229767 
	C2.287637,285.824341 1.653929,282.410156 1.000000,279.000000 
	C1.000000,264.645782 1.000000,250.291550 1.389711,235.285919 
	C2.849198,226.550003 3.807861,218.448944 5.009953,210.384140 
	C8.377844,187.789093 15.815201,166.440842 25.621965,145.934128 
	C35.414963,125.456223 47.798904,106.658165 62.822514,89.527313 
	C76.355850,74.095787 91.146645,60.090286 107.750832,48.113464 
	C126.086395,34.887772 145.956070,24.258135 167.184158,16.483267 
	C185.153427,9.901955 203.612183,4.950379 222.755447,2.960554 
	C226.860535,2.533855 230.919693,1.665108 235.000000,0.999999 
	C249.354233,1.000000 263.708466,1.000000 278.714081,1.389713 
	C287.450043,2.849205 295.551178,3.807835 303.615997,5.009969 
	C326.211060,8.377960 347.559296,15.815243 368.066010,25.622061 
	C388.543915,35.415096 407.341919,47.799042 424.472778,62.822624 
	C439.904327,76.355927 453.909760,91.146759 465.886597,107.750931 
	C479.112305,126.086449 489.741913,145.956146 497.516754,167.184204 
	C504.098053,185.153473 509.049652,203.612198 511.039398,222.755463 
	C511.466095,226.860550 512.334900,230.919693 513.000000,235.000000 
	C513.000000,249.354233 513.000000,263.708466 512.612183,278.711182 
	C511.482971,285.994385 511.189453,292.717957 509.894989,299.242981 
	C507.967773,308.957794 505.333710,318.532410 503.000427,328.166687 
z"/>
<path fill="#FFFFFF" opacity="1.000000" stroke="none" 
	d="
M503.000183,328.553711 
	C505.333710,318.532410 507.967773,308.957794 509.894989,299.242981 
	C511.189453,292.717957 511.482971,285.994385 512.612183,279.179810 
	C513.000000,356.927185 513.000000,434.854370 513.000000,513.000000 
	C434.979248,513.000000 356.958282,513.000000 278.468658,513.000000 
	C282.221558,512.333740 286.452637,511.722198 290.662598,510.989258 
	C298.119415,509.691132 305.563385,508.319183 313.824707,506.953003 
	C324.460999,503.931305 334.285339,500.934723 344.109650,497.938171 
	C354.273590,493.632324 364.437531,489.326508 375.236206,484.733002 
	C381.478363,481.233551 387.166321,478.153656 392.678772,474.786469 
	C413.284088,462.200287 431.342316,446.502594 447.597504,428.760620 
	C453.524597,422.291412 458.581665,415.025085 464.035675,408.122437 
	C467.839172,402.104218 471.777649,396.166077 475.408447,390.045380 
	C479.087372,383.843567 482.867004,377.647644 485.874207,371.113922 
	C490.273407,361.555908 494.060547,351.714172 498.032532,341.962433 
	C499.784515,337.661072 501.349854,333.283661 503.000183,328.553711 
z"/>
<path fill="#FFFFFF" opacity="1.000000" stroke="none" 
	d="
M58.125648,418.921906 
	C68.699951,429.730011 79.002594,440.821594 89.914520,451.277344 
	C104.919495,465.655029 122.670677,476.176636 141.237701,485.886810 
	C156.299515,493.929260 171.823822,500.024292 188.122086,503.928497 
	C200.721939,506.946686 213.466171,509.376526 226.183289,511.879517 
	C228.908905,512.416016 231.794235,512.140930 234.802994,512.619873 
	C157.072968,513.000000 79.145927,513.000000 1.000000,513.000000 
	C1.000000,435.312561 1.000000,357.624939 1.000000,279.468658 
	C1.653929,282.410156 2.287637,285.824341 2.965351,289.229767 
	C5.646797,302.703674 8.344328,316.174408 11.025102,329.648468 
	C11.153787,330.295258 11.179721,330.962463 11.607368,332.223114 
	C21.564548,364.626465 36.897755,393.354553 58.125648,418.921906 
z"/>
<path fill="#FFFFFF" opacity="1.000000" stroke="none" 
	d="
M234.531342,0.999999 
	C230.919693,1.665108 226.860535,2.533855 222.755447,2.960554 
	C203.612183,4.950379 185.153427,9.901955 167.184158,16.483267 
	C145.956070,24.258135 126.086395,34.887772 107.750832,48.113464 
	C91.146645,60.090286 76.355850,74.095787 62.822514,89.527313 
	C47.798904,106.658165 35.414963,125.456223 25.621965,145.934128 
	C15.815201,166.440842 8.377844,187.789093 5.009953,210.384140 
	C3.807861,218.448944 2.849198,226.550003 1.389711,234.817261 
	C1.000000,157.072952 1.000000,79.145912 1.000000,1.000000 
	C78.687424,1.000000 156.375061,1.000000 234.531342,0.999999 
z"/>
<path fill="#FFFFFF" opacity="1.000000" stroke="none" 
	d="
M513.000000,234.531342 
	C512.334900,230.919693 511.466095,226.860550 511.039398,222.755463 
	C509.049652,203.612198 504.098053,185.153473 497.516754,167.184204 
	C489.741913,145.956146 479.112305,126.086449 465.886597,107.750931 
	C453.909760,91.146759 439.904327,76.355927 424.472778,62.822624 
	C407.341919,47.799042 388.543915,35.415096 368.066010,25.622061 
	C347.559296,15.815243 326.211060,8.377960 303.615997,5.009969 
	C295.551178,3.807835 287.450043,2.849205 279.182739,1.389713 
	C356.927032,1.000000 434.854095,1.000000 513.000000,1.000000 
	C513.000000,78.687424 513.000000,156.375061 513.000000,234.531342 
z"/>
<path fill="#274D6F" opacity="1.000000" stroke="none" 
	d="
M463.668365,408.071747 
	C458.581665,415.025085 453.524597,422.291412 447.597504,428.760620 
	C431.342316,446.502594 413.284088,462.200287 392.678772,474.786469 
	C387.166321,478.153656 381.478363,481.233551 375.611450,484.635925 
	C375.351898,468.179749 375.351898,451.532959 375.351898,434.230347 
	C335.801941,434.230347 296.633850,434.230347 257.235291,434.230347 
	C257.235291,427.969513 257.235291,422.358215 257.235291,415.930786 
	C259.065887,415.930786 260.972229,415.930786 262.878571,415.930786 
	C316.179291,415.930786 369.480560,415.794189 422.780304,416.022278 
	C436.934448,416.082855 450.697296,415.283752 463.668365,408.071747 
z"/>
<path fill="#F2F2F0" opacity="1.000000" stroke="none" 
	d="
M344.025269,497.542175 
	C334.285339,500.934723 324.460999,503.931305 314.227295,506.939758 
	C313.142029,506.087769 312.603149,505.052368 311.769287,504.386322 
	C302.672394,497.121155 300.321594,485.444336 306.105316,475.931915 
	C311.496399,467.065247 323.133392,463.319031 332.714539,467.365753 
	C342.914368,471.673798 347.944061,482.756134 344.739288,493.826965 
	C344.423187,494.918915 344.204681,496.039093 344.025269,497.542175 
z"/>
<path fill="#3876AC" opacity="1.000000" stroke="none" 
	d="
M58.522758,418.923462 
	C36.897755,393.354553 21.564548,364.626465 11.942995,332.426208 
	C11.618251,319.049866 10.646008,306.047333 11.151344,293.102509 
	C12.052507,270.017975 15.666977,247.359436 26.276772,226.428818 
	C34.607735,209.993774 46.031834,196.667603 64.521507,191.388031 
	C69.572495,189.945770 74.979889,189.109497 80.226860,189.094543 
	C136.889023,188.932861 193.551819,188.991364 250.214432,188.988632 
	C257.929077,188.988251 257.990723,188.984970 257.921173,181.517136 
	C257.807495,169.307343 259.496826,170.968597 247.305450,170.943771 
	C213.474670,170.874893 179.643661,170.924988 145.812744,170.915207 
	C139.209091,170.913300 139.100159,170.799637 139.092896,164.215225 
	C139.077850,150.549545 139.820114,136.835388 138.919327,123.229324 
	C137.512482,101.979530 148.060593,88.669022 165.568542,79.227188 
	C183.107330,69.768730 201.952713,64.097839 221.626694,62.193596 
	C238.645248,60.546371 255.895767,59.476055 272.937927,60.310925 
	C299.705841,61.622246 325.877625,66.826324 349.340027,80.854767 
	C354.976654,84.224991 360.116577,88.709999 364.742950,93.412308 
	C370.244904,99.004593 373.118652,105.936142 373.088196,114.156517 
	C372.933350,155.986282 373.069733,197.817032 372.988495,239.647217 
	C372.932068,268.711182 348.963776,292.825012 319.801758,292.935699 
	C276.638794,293.099518 233.474747,292.958130 190.311218,293.003784 
	C157.067123,293.038971 129.596939,315.760620 123.443413,348.407379 
	C122.554649,353.122620 122.151161,357.991089 122.110901,362.793579 
	C121.958633,380.957672 121.926666,399.125214 122.136047,417.288177 
	C122.186539,421.667511 120.864441,423.139893 116.448425,422.988007 
	C101.977859,422.490082 87.485641,422.552094 73.024040,421.902527 
	C68.287628,421.689758 63.619320,419.960693 58.522758,418.923462 
M211.370377,121.667053 
	C213.550446,106.567459 201.595657,94.024361 187.279770,96.390930 
	C176.366135,98.195068 168.829010,107.014267 168.927155,117.865395 
	C169.022324,128.391052 176.932846,137.458160 187.257828,138.876190 
	C198.333557,140.397339 207.763199,133.928406 211.370377,121.667053 
z"/>
<path fill="#EFF0F1" opacity="1.000000" stroke="none" 
	d="
M211.275818,122.065598 
	C207.763199,133.928406 198.333557,140.397339 187.257828,138.876190 
	C176.932846,137.458160 169.022324,128.391052 168.927155,117.865395 
	C168.829010,107.014267 176.366135,98.195068 187.279770,96.390930 
	C201.595657,94.024361 213.550446,106.567459 211.275818,122.065598 
z"/>
</svg>