<svg version="1.1" id="Layer_1" xmlns="http://www.w3.org/2000/svg" xmlns:xlink="http://www.w3.org/1999/xlink" x="0px" y="0px"
	 width="100%" viewBox="0 0 512 512" enable-background="new 0 0 512 512" xml:space="preserve">
<path fill="#373738" opacity="1.000000" stroke="none" 
	d="
M1.000001,395.000000 
	C1.000000,280.645782 1.000000,166.291550 1.348511,51.456726 
	C6.667548,45.531532 10.935258,39.144299 16.738935,34.817139 
	C34.946129,21.242035 56.519844,15.388058 78.335083,11.221647 
	C97.426811,7.575387 116.852699,5.684738 136.116119,2.915234 
	C137.147873,2.766898 138.041870,1.660439 139.000000,1.000001 
	C172.020889,1.000000 205.041794,1.000000 238.599609,1.395785 
	C240.484680,2.194647 241.810272,2.821946 243.185059,2.960192 
	C247.961166,3.440468 252.805893,3.428950 257.531555,4.185283 
	C273.039581,6.667301 288.636047,8.816695 303.958435,12.185762 
	C325.409454,16.902395 346.363586,23.292585 364.154327,37.058342 
	C370.231110,41.760326 374.623871,47.660484 376.198303,55.322517 
	C376.693787,57.733700 376.964935,60.236191 376.966400,62.697105 
	C377.006714,131.119492 377.046661,199.541992 376.897217,267.964081 
	C376.886688,272.787018 378.215332,274.299469 383.049164,274.107483 
	C392.191010,273.744507 401.357727,273.968781 410.513763,274.016876 
	C416.104126,274.046204 418.487122,276.357880 419.032257,282.427429 
	C417.655823,289.399902 415.398285,291.072632 407.695587,291.073547 
	C338.538147,291.081726 269.380676,291.074768 200.223236,291.083893 
	C191.730194,291.085022 188.839066,293.799500 188.836670,301.890503 
	C188.818512,363.049011 188.817520,424.207550 188.839600,485.366058 
	C188.842361,493.011505 191.782654,495.954407 199.423935,495.955811 
	C294.744568,495.973511 390.065186,495.973450 485.385834,495.953278 
	C492.874847,495.951691 495.952332,492.820496 495.954926,485.235596 
	C495.975861,424.077087 495.976257,362.918549 495.954132,301.760040 
	C495.951385,294.204315 492.862640,291.123108 485.326141,291.094025 
	C472.494690,291.044556 459.662903,291.102997 446.831360,291.067444 
	C439.771057,291.047882 437.549469,289.147949 436.008057,281.652222 
	C436.804291,276.105011 439.988708,273.978760 445.025909,273.991516 
	C459.647491,274.028564 474.269196,273.993408 488.890869,274.007416 
	C495.322998,274.013580 500.865417,276.231049 505.359314,280.877563 
	C507.943237,283.549225 510.455475,286.290222 513.000000,289.000000 
	C513.000000,358.354218 513.000000,427.708466 512.653809,497.540527 
	C508.317139,502.056458 504.312225,506.080353 500.347931,510.143829 
	C499.490387,511.022827 498.778778,512.044189 498.000000,513.000000 
	C394.645782,513.000000 291.291534,513.000000 187.456589,512.651428 
	C183.776489,509.756439 180.063980,507.640320 177.489319,504.570007 
	C172.772888,498.945557 170.878677,492.124390 170.967087,484.697388 
	C171.105713,473.051300 171.110214,461.400177 170.877319,449.757080 
	C170.845490,448.165619 169.407745,445.597137 168.123520,445.232422 
	C164.836136,444.298828 161.271301,444.318512 157.812134,444.017548 
	C142.493637,442.684723 127.125305,441.776947 111.864380,439.963257 
	C86.344162,436.930237 61.156307,432.127594 37.378975,421.901978 
	C25.171581,416.652069 13.192248,410.859192 5.061969,399.576660 
	C3.875585,397.930328 2.362112,396.519714 1.000001,395.000000 
M138.395798,212.048691 
	C146.685394,212.676483 154.982285,213.916275 163.263199,213.817459 
	C188.221542,213.519592 213.194626,213.143112 238.122314,211.961288 
	C263.108368,210.776688 287.710144,206.531296 311.840942,199.829865 
	C324.875244,196.210114 337.624451,191.820190 349.148651,184.520508 
	C355.882019,180.255432 359.536652,174.842743 359.315094,166.051559 
	C358.710724,142.069351 359.116516,118.061897 359.088959,94.064484 
	C359.086823,92.216766 358.825104,90.369347 358.731171,89.138977 
	C347.649994,93.766319 337.319366,98.897507 326.473297,102.458900 
	C291.412018,113.971550 255.027649,118.361336 218.389160,119.750679 
	C176.933762,121.322670 135.479431,120.410599 94.468994,112.940880 
	C68.847473,108.274124 43.502087,102.667358 20.779219,89.013344 
	C20.165154,88.644348 19.294918,88.701683 18.006657,88.458923 
	C18.006657,90.839241 18.006659,92.815788 18.006657,94.792328 
	C18.006647,118.289825 18.378466,141.796234 17.815531,165.280243 
	C17.603476,174.126572 20.892487,179.986542 28.011581,184.274460 
	C31.715374,186.505325 35.432446,188.813187 39.391960,190.504730 
	C70.708672,203.883606 103.870773,208.962357 138.395798,212.048691 
M352.394836,274.019043 
	C359.193695,273.980011 359.201691,273.980011 359.203003,267.250916 
	C359.207123,246.584915 359.211090,225.918900 359.193481,205.252914 
	C359.191864,203.354248 359.036133,201.455719 358.950500,199.524384 
	C350.266937,203.459229 342.326965,207.698669 333.952454,210.742615 
	C294.344177,225.139282 252.970444,229.443619 211.249481,230.886734 
	C179.768890,231.975647 148.307922,231.174881 116.979225,227.123581 
	C91.152969,223.783829 65.590775,219.392029 41.223095,209.864639 
	C33.552879,206.865723 26.233171,202.970337 18.022268,199.144775 
	C18.022268,201.276657 18.022272,203.040405 18.022268,204.804153 
	C18.022230,228.303406 18.571903,251.821396 17.772049,275.293396 
	C17.414230,285.793671 21.898308,291.872955 30.132339,296.654083 
	C43.678864,304.519958 58.454239,309.098083 73.505516,312.879120 
	C97.638535,318.941528 122.252106,321.925507 147.008575,323.812927 
	C155.060257,324.426758 163.148499,324.561127 171.832764,324.941650 
	C171.832764,317.383942 172.257812,310.556885 171.753204,303.799225 
	C170.228989,283.386780 185.553207,273.607361 201.424179,273.797943 
	C251.415390,274.398193 301.418335,274.019135 352.394836,274.019043 
M354.671753,69.112686 
	C360.994812,62.280014 360.727661,57.050919 353.358398,51.042233 
	C343.617126,43.099476 332.014160,38.807610 320.237427,35.089657 
	C282.575958,23.199833 243.669785,19.266737 204.469635,18.337820 
	C184.192596,17.857319 163.848679,18.926325 143.572388,20.000996 
	C116.404144,21.440952 89.590302,25.641996 63.429104,33.229557 
	C49.197723,37.357101 34.955830,41.807495 23.374063,51.758236 
	C16.469578,57.690384 16.405016,63.183239 23.027365,69.441757 
	C24.472773,70.807755 25.979361,72.289032 27.740715,73.110672 
	C37.218662,77.531982 46.489494,82.670181 56.375084,85.896202 
	C93.588531,98.040298 132.151459,101.966721 171.058548,103.003548 
	C198.385681,103.731781 225.695129,103.122375 252.884521,99.923500 
	C278.068054,96.960602 303.120087,93.019402 326.895538,83.907990 
	C336.408081,80.262512 345.089417,74.448105 354.671753,69.112686 
M106.761322,336.868469 
	C101.352699,335.958344 95.925858,335.144196 90.538582,334.121613 
	C66.100235,329.482758 42.004772,323.792023 20.330658,310.805481 
	C19.855497,310.520782 19.122469,310.666504 18.412111,310.602631 
	C18.258251,311.492798 18.049351,312.139343 18.048748,312.786072 
	C18.026659,336.435486 17.884996,360.086670 18.193933,383.731995 
	C18.232653,386.695190 20.023060,390.218689 22.100183,392.468628 
	C30.045582,401.075134 40.911530,404.826935 51.546227,408.667847 
	C74.366547,416.909882 98.134666,421.088043 122.126053,423.791870 
	C136.973190,425.465149 151.950348,425.981354 166.867722,427.037079 
	C169.879272,427.250214 171.971573,426.853973 171.955032,422.923431 
	C171.847229,397.275787 171.882690,371.627441 171.923111,345.979401 
	C171.927246,343.352936 171.102371,342.169342 168.235352,341.946808 
	C148.030624,340.378723 127.839264,338.638123 106.761322,336.868469 
z"/>
<path fill="#000000" opacity="1.000000" stroke="none" 
	d="
M419.010986,282.043152 
	C418.487122,276.357880 416.104126,274.046204 410.513763,274.016876 
	C401.357727,273.968781 392.191010,273.744507 383.049164,274.107483 
	C378.215332,274.299469 376.886688,272.787018 376.897217,267.964081 
	C377.046661,199.541992 377.006714,131.119492 376.966400,62.697105 
	C376.964935,60.236191 376.693787,57.733700 376.198303,55.322517 
	C374.623871,47.660484 370.231110,41.760326 364.154327,37.058342 
	C346.363586,23.292585 325.409454,16.902395 303.958435,12.185762 
	C288.636047,8.816695 273.039581,6.667301 257.531555,4.185283 
	C252.805893,3.428950 247.961166,3.440468 243.185059,2.960192 
	C241.810272,2.821946 240.484680,2.194647 239.068268,1.395785 
	C330.262177,1.000000 421.524384,1.000000 513.000000,1.000000 
	C513.000000,96.687454 513.000000,192.375076 513.000000,288.531342 
	C510.455475,286.290222 507.943237,283.549225 505.359314,280.877563 
	C500.865417,276.231049 495.322998,274.013580 488.890869,274.007416 
	C474.269196,273.993408 459.647491,274.028564 445.025909,273.991516 
	C439.988708,273.978760 436.804291,276.105011 435.541016,281.638733 
	C429.710785,282.015289 424.360901,282.029205 419.010986,282.043152 
z"/>
<path fill="#000000" opacity="1.000000" stroke="none" 
	d="
M1.000001,395.468658 
	C2.362112,396.519714 3.875585,397.930328 5.061969,399.576660 
	C13.192248,410.859192 25.171581,416.652069 37.378975,421.901978 
	C61.156307,432.127594 86.344162,436.930237 111.864380,439.963257 
	C127.125305,441.776947 142.493637,442.684723 157.812134,444.017548 
	C161.271301,444.318512 164.836136,444.298828 168.123520,445.232422 
	C169.407745,445.597137 170.845490,448.165619 170.877319,449.757080 
	C171.110214,461.400177 171.105713,473.051300 170.967087,484.697388 
	C170.878677,492.124390 172.772888,498.945557 177.489319,504.570007 
	C180.063980,507.640320 183.776489,509.756439 186.987930,512.651428 
	C125.089333,513.000000 63.178669,513.000000 1.000000,513.000000 
	C1.000000,473.979523 1.000000,434.958405 1.000001,395.468658 
z"/>
<path fill="#000000" opacity="1.000000" stroke="none" 
	d="
M138.531342,1.000001 
	C138.041870,1.660439 137.147873,2.766898 136.116119,2.915234 
	C116.852699,5.684738 97.426811,7.575387 78.335083,11.221647 
	C56.519844,15.388058 34.946129,21.242035 16.738935,34.817139 
	C10.935258,39.144299 6.667548,45.531532 1.348511,50.988068 
	C1.000000,34.372204 1.000000,17.744408 1.000000,1.000000 
	C46.687500,1.000000 92.375092,1.000000 138.531342,1.000001 
z"/>
<path fill="#000000" opacity="1.000000" stroke="none" 
	d="
M498.472656,513.000000 
	C498.778778,512.044189 499.490387,511.022827 500.347931,510.143829 
	C504.312225,506.080353 508.317139,502.056458 512.653809,498.009216 
	C513.000000,502.924530 513.000000,507.849030 513.000000,513.000000 
	C508.316681,513.000000 503.630981,513.000000 498.472656,513.000000 
z"/>
<path fill="#A9C6C7" opacity="1.000000" stroke="none" 
	d="
M419.032257,282.427429 
	C424.360901,282.029205 429.710785,282.015289 435.527740,282.014801 
	C437.549469,289.147949 439.771057,291.047882 446.831360,291.067444 
	C459.662903,291.102997 472.494690,291.044556 485.326141,291.094025 
	C492.862640,291.123108 495.951385,294.204315 495.954132,301.760040 
	C495.976257,362.918549 495.975861,424.077087 495.954926,485.235596 
	C495.952332,492.820496 492.874847,495.951691 485.385834,495.953278 
	C390.065186,495.973450 294.744568,495.973511 199.423935,495.955811 
	C191.782654,495.954407 188.842361,493.011505 188.839600,485.366058 
	C188.817520,424.207550 188.818512,363.049011 188.836670,301.890503 
	C188.839066,293.799500 191.730194,291.085022 200.223236,291.083893 
	C269.380676,291.074768 338.538147,291.081726 407.695587,291.073547 
	C415.398285,291.072632 417.655823,289.399902 419.032257,282.427429 
M308.117798,413.458618 
	C308.119934,415.122803 308.101379,416.787354 308.127228,418.451141 
	C308.526794,444.185242 332.847229,460.142700 356.410004,449.978485 
	C359.074890,448.828949 360.495667,449.393738 362.483307,451.069763 
	C365.997559,454.033234 369.945709,453.926727 373.385986,450.945160 
	C376.666779,448.101746 377.682709,443.886932 375.026184,440.654602 
	C372.037140,437.017670 372.450806,434.100006 374.321045,430.544586 
	C374.929230,429.388397 375.487488,428.027100 375.490753,426.758118 
	C375.548279,404.506348 377.114532,382.100494 374.991974,360.051636 
	C373.326324,342.748779 355.644318,332.114197 338.026184,334.057892 
	C321.556519,335.874878 308.516571,350.268982 308.194580,367.539215 
	C307.915436,382.511414 308.124542,397.492767 308.117798,413.458618 
M224.606247,357.291534 
	C219.589600,375.649323 227.557373,393.066284 244.367798,399.494171 
	C248.618118,401.119385 253.405838,401.517792 257.996735,402.035065 
	C266.470551,402.989960 273.155670,409.235962 273.949615,417.363525 
	C274.763092,425.690918 269.555878,433.272980 261.462006,435.546356 
	C250.911377,438.509766 241.297913,431.288849 239.978256,419.409332 
	C239.348328,413.738922 236.046646,410.565216 230.993149,410.772461 
	C225.968903,410.978546 222.952530,414.516144 222.963745,420.230682 
	C222.966034,421.394775 222.995911,422.569183 223.147964,423.721039 
	C225.290787,439.954102 239.252731,452.653595 255.448837,453.127472 
	C273.100800,453.643951 287.544800,442.033936 290.687378,424.802948 
	C293.586273,408.908203 284.122864,392.499817 268.560211,387.153778 
	C264.547485,385.775299 260.123871,385.438690 255.850296,385.006195 
	C247.091003,384.119781 240.262650,377.180634 239.998169,368.572571 
	C239.728271,359.787476 246.074600,352.159882 254.570694,351.058044 
	C263.488312,349.901489 271.644409,355.506195 273.632538,364.250183 
	C273.998383,365.859406 273.879913,367.574127 274.185364,369.202576 
	C275.031952,373.715912 278.601349,376.517151 283.064087,376.294678 
	C287.512573,376.072906 290.779694,372.881744 290.993561,368.254547 
	C291.092621,366.112244 290.948090,363.905487 290.537628,361.801331 
	C287.605560,346.770844 275.475861,335.429779 260.973206,334.033875 
	C244.664017,332.464081 231.142792,340.891846 224.606247,357.291534 
M405.517883,334.604431 
	C397.736786,332.893097 393.585693,335.960724 393.563232,343.961609 
	C393.470520,376.950653 393.480408,409.940216 393.552490,442.929382 
	C393.568665,450.328735 396.555786,453.146454 403.965729,453.167694 
	C419.793823,453.213074 435.622192,453.206940 451.450317,453.167023 
	C457.844147,453.150909 461.712280,449.982483 461.815063,444.865540 
	C461.920166,439.630554 457.808594,436.160736 451.250946,436.131775 
	C439.588257,436.080231 427.925232,436.115784 416.262329,436.114990 
	C414.507385,436.114838 412.752472,436.114960 410.691254,436.114960 
	C410.691254,433.483734 410.691254,431.662598 410.691254,429.841461 
	C410.690887,401.683899 410.678467,373.526306 410.703461,345.368744 
	C410.707123,341.219513 410.295807,337.325104 405.517883,334.604431 
z"/>
<path fill="#3D4B89" opacity="1.000000" stroke="none" 
	d="
M137.930573,212.036102 
	C103.870773,208.962357 70.708672,203.883606 39.391960,190.504730 
	C35.432446,188.813187 31.715374,186.505325 28.011581,184.274460 
	C20.892487,179.986542 17.603476,174.126572 17.815531,165.280243 
	C18.378466,141.796234 18.006647,118.289825 18.006657,94.792328 
	C18.006659,92.815788 18.006657,90.839241 18.006657,88.458923 
	C19.294918,88.701683 20.165154,88.644348 20.779219,89.013344 
	C43.502087,102.667358 68.847473,108.274124 94.468994,112.940880 
	C135.479431,120.410599 176.933762,121.322670 218.389160,119.750679 
	C255.027649,118.361336 291.412018,113.971550 326.473297,102.458900 
	C337.319366,98.897507 347.649994,93.766319 358.731171,89.138977 
	C358.825104,90.369347 359.086823,92.216766 359.088959,94.064484 
	C359.116516,118.061897 358.710724,142.069351 359.315094,166.051559 
	C359.536652,174.842743 355.882019,180.255432 349.148651,184.520508 
	C337.624451,191.820190 324.875244,196.210114 311.840942,199.829865 
	C287.710144,206.531296 263.108368,210.776688 238.122314,211.961288 
	C213.194626,213.143112 188.221542,213.519592 163.263199,213.817459 
	C154.982285,213.916275 146.685394,212.676483 137.930573,212.036102 
z"/>
<path fill="#5663AF" opacity="1.000000" stroke="none" 
	d="
M351.905792,274.019073 
	C301.418335,274.019135 251.415390,274.398193 201.424179,273.797943 
	C185.553207,273.607361 170.228989,283.386780 171.753204,303.799225 
	C172.257812,310.556885 171.832764,317.383942 171.832764,324.941650 
	C163.148499,324.561127 155.060257,324.426758 147.008575,323.812927 
	C122.252106,321.925507 97.638535,318.941528 73.505516,312.879120 
	C58.454239,309.098083 43.678864,304.519958 30.132339,296.654083 
	C21.898308,291.872955 17.414230,285.793671 17.772049,275.293396 
	C18.571903,251.821396 18.022230,228.303406 18.022268,204.804153 
	C18.022272,203.040405 18.022268,201.276657 18.022268,199.144775 
	C26.233171,202.970337 33.552879,206.865723 41.223095,209.864639 
	C65.590775,219.392029 91.152969,223.783829 116.979225,227.123581 
	C148.307922,231.174881 179.768890,231.975647 211.249481,230.886734 
	C252.970444,229.443619 294.344177,225.139282 333.952454,210.742615 
	C342.326965,207.698669 350.266937,203.459229 358.950500,199.524384 
	C359.036133,201.455719 359.191864,203.354248 359.193481,205.252914 
	C359.211090,225.918900 359.207123,246.584915 359.203003,267.250916 
	C359.201691,273.980011 359.193695,273.980011 351.905792,274.019073 
z"/>
<path fill="#5663AF" opacity="1.000000" stroke="none" 
	d="
M354.410431,69.366829 
	C345.089417,74.448105 336.408081,80.262512 326.895538,83.907990 
	C303.120087,93.019402 278.068054,96.960602 252.884521,99.923500 
	C225.695129,103.122375 198.385681,103.731781 171.058548,103.003548 
	C132.151459,101.966721 93.588531,98.040298 56.375084,85.896202 
	C46.489494,82.670181 37.218662,77.531982 27.740715,73.110672 
	C25.979361,72.289032 24.472773,70.807755 23.027365,69.441757 
	C16.405016,63.183239 16.469578,57.690384 23.374063,51.758236 
	C34.955830,41.807495 49.197723,37.357101 63.429104,33.229557 
	C89.590302,25.641996 116.404144,21.440952 143.572388,20.000996 
	C163.848679,18.926325 184.192596,17.857319 204.469635,18.337820 
	C243.669785,19.266737 282.575958,23.199833 320.237427,35.089657 
	C332.014160,38.807610 343.617126,43.099476 353.358398,51.042233 
	C360.727661,57.050919 360.994812,62.280014 354.410431,69.366829 
z"/>
<path fill="#3D4B89" opacity="1.000000" stroke="none" 
	d="
M107.202484,336.910522 
	C127.839264,338.638123 148.030624,340.378723 168.235352,341.946808 
	C171.102371,342.169342 171.927246,343.352936 171.923111,345.979401 
	C171.882690,371.627441 171.847229,397.275787 171.955032,422.923431 
	C171.971573,426.853973 169.879272,427.250214 166.867722,427.037079 
	C151.950348,425.981354 136.973190,425.465149 122.126053,423.791870 
	C98.134666,421.088043 74.366547,416.909882 51.546227,408.667847 
	C40.911530,404.826935 30.045582,401.075134 22.100183,392.468628 
	C20.023060,390.218689 18.232653,386.695190 18.193933,383.731995 
	C17.884996,360.086670 18.026659,336.435486 18.048748,312.786072 
	C18.049351,312.139343 18.258251,311.492798 18.412111,310.602631 
	C19.122469,310.666504 19.855497,310.520782 20.330658,310.805481 
	C42.004772,323.792023 66.100235,329.482758 90.538582,334.121613 
	C95.925858,335.144196 101.352699,335.958344 107.202484,336.910522 
z"/>
<path fill="#393939" opacity="1.000000" stroke="none" 
	d="
M308.117798,412.964355 
	C308.124542,397.492767 307.915436,382.511414 308.194580,367.539215 
	C308.516571,350.268982 321.556519,335.874878 338.026184,334.057892 
	C355.644318,332.114197 373.326324,342.748779 374.991974,360.051636 
	C377.114532,382.100494 375.548279,404.506348 375.490753,426.758118 
	C375.487488,428.027100 374.929230,429.388397 374.321045,430.544586 
	C372.450806,434.100006 372.037140,437.017670 375.026184,440.654602 
	C377.682709,443.886932 376.666779,448.101746 373.385986,450.945160 
	C369.945709,453.926727 365.997559,454.033234 362.483307,451.069763 
	C360.495667,449.393738 359.074890,448.828949 356.410004,449.978485 
	C332.847229,460.142700 308.526794,444.185242 308.127228,418.451141 
	C308.101379,416.787354 308.119934,415.122803 308.117798,412.964355 
M351.010803,353.252472 
	C338.743622,347.634949 326.019226,353.764130 325.476929,366.559814 
	C324.715546,384.524841 324.831268,402.562561 325.464539,420.537750 
	C325.843109,431.283264 336.039917,438.067108 345.545258,435.171021 
	C341.916443,429.130676 341.680298,425.379028 344.719940,422.059509 
	C348.012787,418.463593 351.671539,418.521545 358.811737,422.424622 
	C358.960663,421.561554 359.208191,420.793427 359.208862,420.025116 
	C359.225006,402.193634 359.308075,384.361267 359.153168,366.531067 
	C359.105072,360.994080 356.196625,356.761719 351.010803,353.252472 
z"/>
<path fill="#393939" opacity="1.000000" stroke="none" 
	d="
M224.737579,356.914551 
	C231.142792,340.891846 244.664017,332.464081 260.973206,334.033875 
	C275.475861,335.429779 287.605560,346.770844 290.537628,361.801331 
	C290.948090,363.905487 291.092621,366.112244 290.993561,368.254547 
	C290.779694,372.881744 287.512573,376.072906 283.064087,376.294678 
	C278.601349,376.517151 275.031952,373.715912 274.185364,369.202576 
	C273.879913,367.574127 273.998383,365.859406 273.632538,364.250183 
	C271.644409,355.506195 263.488312,349.901489 254.570694,351.058044 
	C246.074600,352.159882 239.728271,359.787476 239.998169,368.572571 
	C240.262650,377.180634 247.091003,384.119781 255.850296,385.006195 
	C260.123871,385.438690 264.547485,385.775299 268.560211,387.153778 
	C284.122864,392.499817 293.586273,408.908203 290.687378,424.802948 
	C287.544800,442.033936 273.100800,453.643951 255.448837,453.127472 
	C239.252731,452.653595 225.290787,439.954102 223.147964,423.721039 
	C222.995911,422.569183 222.966034,421.394775 222.963745,420.230682 
	C222.952530,414.516144 225.968903,410.978546 230.993149,410.772461 
	C236.046646,410.565216 239.348328,413.738922 239.978256,419.409332 
	C241.297913,431.288849 250.911377,438.509766 261.462006,435.546356 
	C269.555878,433.272980 274.763092,425.690918 273.949615,417.363525 
	C273.155670,409.235962 266.470551,402.989960 257.996735,402.035065 
	C253.405838,401.517792 248.618118,401.119385 244.367798,399.494171 
	C227.557373,393.066284 219.589600,375.649323 224.737579,356.914551 
z"/>
<path fill="#393A3A" opacity="1.000000" stroke="none" 
	d="
M405.869385,334.787170 
	C410.295807,337.325104 410.707123,341.219513 410.703461,345.368744 
	C410.678467,373.526306 410.690887,401.683899 410.691254,429.841461 
	C410.691254,431.662598 410.691254,433.483734 410.691254,436.114960 
	C412.752472,436.114960 414.507385,436.114838 416.262329,436.114990 
	C427.925232,436.115784 439.588257,436.080231 451.250946,436.131775 
	C457.808594,436.160736 461.920166,439.630554 461.815063,444.865540 
	C461.712280,449.982483 457.844147,453.150909 451.450317,453.167023 
	C435.622192,453.206940 419.793823,453.213074 403.965729,453.167694 
	C396.555786,453.146454 393.568665,450.328735 393.552490,442.929382 
	C393.480408,409.940216 393.470520,376.950653 393.563232,343.961609 
	C393.585693,335.960724 397.736786,332.893097 405.869385,334.787170 
z"/>
<path fill="#A9C5C6" opacity="1.000000" stroke="none" 
	d="
M351.320099,353.467834 
	C356.196625,356.761719 359.105072,360.994080 359.153168,366.531067 
	C359.308075,384.361267 359.225006,402.193634 359.208862,420.025116 
	C359.208191,420.793427 358.960663,421.561554 358.811737,422.424622 
	C351.671539,418.521545 348.012787,418.463593 344.719940,422.059509 
	C341.680298,425.379028 341.916443,429.130676 345.545258,435.171021 
	C336.039917,438.067108 325.843109,431.283264 325.464539,420.537750 
	C324.831268,402.562561 324.715546,384.524841 325.476929,366.559814 
	C326.019226,353.764130 338.743622,347.634949 351.320099,353.467834 
z"/>
</svg>